<?xml version="1.0" encoding="UTF-8" standalone="no"?>
<svg
   width="14in"
   height="8.5in"
   viewBox="0 0 355.59998 215.9"
   version="1.1"
   id="svg1408"
   sodipodi:docname="J02_check_updated_cutout.svg"
   inkscape:version="1.1.2 (0a00cf5339, 2022-02-04)"
   xmlns:inkscape="http://www.inkscape.org/namespaces/inkscape"
   xmlns:sodipodi="http://sodipodi.sourceforge.net/DTD/sodipodi-0.dtd"
   xmlns="http://www.w3.org/2000/svg"
   xmlns:svg="http://www.w3.org/2000/svg">
  <defs
     id="defs1412" />
  <sodipodi:namedview
     id="namedview1410"
     pagecolor="#ffffff"
     bordercolor="#666666"
     borderopacity="1.0"
     inkscape:pageshadow="2"
     inkscape:pageopacity="0.0"
     inkscape:pagecheckerboard="0"
     inkscape:document-units="mm"
     showgrid="false"
     inkscape:zoom="1.0160038"
     inkscape:cx="632.37952"
     inkscape:cy="246.06207"
     inkscape:window-width="3000"
     inkscape:window-height="1655"
     inkscape:window-x="2562"
     inkscape:window-y="126"
     inkscape:window-maximized="0"
     inkscape:current-layer="svg1408"
     units="in" />
  <path
     d="m 326.54735,44.059213 -1.76984,-1.769849 a 2,2 0 0 0 -1.41422,-0.585786 H 40.552987 a 2,2 0 0 0 -1.414213,0.585786 l -1.769849,1.769849 a 2,2 0 0 0 -0.585786,1.414214 v 92.485843 a 0.5,0.5 0 0 0 0.354446,0.47834 4.75,4.75 0 0 1 3.161518,3.16152 0.5,0.5 0 0 0 0.478345,0.35445 H 323.13883 a 0.5,0.5 0 0 0 0.47835,-0.35445 4.75,4.75 0 0 1 3.16151,-3.16152 0.5,0.5 0 0 0 0.35445,-0.47834 V 45.473427 a 2,2 0 0 0 -0.58579,-1.414214 z"
     id="path1324"
     style="fill:none;stroke:#000000;stroke-width:0.25;stroke-miterlimit:4;stroke-dasharray:none;stroke-opacity:1" />
  <path
     style="font-size:12px;fill:none;fill-rule:evenodd;stroke:#000000;stroke-width:0.25;stroke-linecap:round;stroke-miterlimit:4;stroke-dasharray:none;stroke-opacity:1"
     d="m 321.15822,136.4265 a 0.5,0.5 0 0 0 0.5,0.5 h 1 a 0.5,0.5 0 0 0 0.5,-0.5 v -13 a 0.5,0.5 0 0 0 -0.5,-0.5 h -1 a 0.5,0.5 0 0 0 -0.5,0.5 z"
     id="path2430" />
  <path
     style="font-size:12px;fill:none;fill-rule:evenodd;stroke:#000000;stroke-width:0.25;stroke-linecap:round;stroke-miterlimit:4;stroke-dasharray:none;stroke-opacity:1"
     d="m 297.95822,136.4265 a 0.5,0.5 0 0 0 0.5,0.5 h 1 a 0.5,0.5 0 0 0 0.5,-0.5 v -13 a 0.5,0.5 0 0 0 -0.5,-0.5 h -1 a 0.5,0.5 0 0 0 -0.5,0.5 z"
     id="path2428" />
  <path
     style="font-size:12px;fill:none;fill-rule:evenodd;stroke:#000000;stroke-width:0.25;stroke-linecap:round;stroke-miterlimit:4;stroke-dasharray:none;stroke-opacity:1"
     d="m 273.53322,136.4265 a 0.5,0.5 0 0 0 0.5,0.5 h 1 a 0.5,0.5 0 0 0 0.5,-0.5 v -13 a 0.5,0.5 0 0 0 -0.5,-0.5 h -1 a 0.5,0.5 0 0 0 -0.5,0.5 z"
     id="path2426" />
  <path
     style="font-size:12px;fill:none;fill-rule:evenodd;stroke:#000000;stroke-width:0.25;stroke-linecap:round;stroke-miterlimit:4;stroke-dasharray:none;stroke-opacity:1"
     d="m 250.33322,136.4265 a 0.5,0.5 0 0 0 0.5,0.5 h 1 a 0.5,0.5 0 0 0 0.5,-0.5 v -13 a 0.5,0.5 0 0 0 -0.5,-0.5 h -1 a 0.5,0.5 0 0 0 -0.5,0.5 z"
     id="path2424" />
  <path
     style="font-size:12px;fill:none;fill-rule:evenodd;stroke:#000000;stroke-width:0.25;stroke-linecap:round;stroke-miterlimit:4;stroke-dasharray:none;stroke-opacity:1"
     d="m 111.60822,136.4265 a 0.5,0.5 0 0 0 0.5,0.5 h 1 a 0.5,0.5 0 0 0 0.5,-0.5 v -13 a 0.5,0.5 0 0 0 -0.5,-0.5 h -1 a 0.5,0.5 0 0 0 -0.5,0.5 z"
     id="path2422" />
  <path
     style="font-size:12px;fill:none;fill-rule:evenodd;stroke:#000000;stroke-width:0.25;stroke-linecap:round;stroke-miterlimit:4;stroke-dasharray:none;stroke-opacity:1"
     d="m 88.408222,136.4265 a 0.5,0.5 0 0 0 0.5,0.5 h 1 a 0.5,0.5 0 0 0 0.5,-0.5 v -13 a 0.5,0.5 0 0 0 -0.5,-0.5 h -1 a 0.5,0.5 0 0 0 -0.5,0.5 z"
     id="path2420" />
  <path
     style="font-size:12px;fill:none;fill-rule:evenodd;stroke:#000000;stroke-width:0.25;stroke-linecap:round;stroke-miterlimit:4;stroke-dasharray:none;stroke-opacity:1"
     d="m 63.983222,136.4265 a 0.5,0.5 0 0 0 0.5,0.5 h 1 a 0.5,0.5 0 0 0 0.5,-0.5 v -13 a 0.5,0.5 0 0 0 -0.5,-0.5 h -1 a 0.5,0.5 0 0 0 -0.5,0.5 z"
     id="path2418" />
  <path
     style="font-size:12px;fill:none;fill-rule:evenodd;stroke:#000000;stroke-width:0.25;stroke-linecap:round;stroke-miterlimit:4;stroke-dasharray:none;stroke-opacity:1"
     d="m 40.783222,136.4265 a 0.5,0.5 0 0 0 0.5,0.5 h 1 a 0.5,0.5 0 0 0 0.5,-0.5 v -13 a 0.5,0.5 0 0 0 -0.5,-0.5 h -1 a 0.5,0.5 0 0 0 -0.5,0.5 z"
     id="path2416" />
  <path
     style="font-size:12px;fill:none;fill-rule:evenodd;stroke:#000000;stroke-width:0.25;stroke-linecap:round;stroke-miterlimit:4;stroke-dasharray:none;stroke-opacity:1"
     d="m 303.55822,136.4265 a 0.5,0.5 0 0 0 0.5,0.5 h 13 a 0.5,0.5 0 0 0 0.5,-0.5 v -13 a 0.5,0.5 0 0 0 -0.5,-0.5 h -13 a 0.5,0.5 0 0 0 -0.5,0.5 z"
     id="path2406" />
  <path
     style="font-size:12px;fill:none;fill-rule:evenodd;stroke:#000000;stroke-width:0.25;stroke-linecap:round;stroke-miterlimit:4;stroke-dasharray:none;stroke-opacity:1"
     d="m 46.383222,136.4265 a 0.5,0.5 0 0 0 0.5,0.5 h 13 a 0.5,0.5 0 0 0 0.5,-0.5 v -13 a 0.5,0.5 0 0 0 -0.5,-0.5 h -13 a 0.5,0.5 0 0 0 -0.5,0.5 z"
     id="path2386" />
  <g
     id="g1254"
     transform="translate(39.105956,36.609383)"
     style="stroke:#000000;stroke-opacity:1">
    <path
       style="font-size:12px;fill:none;fill-rule:evenodd;stroke:#000000;stroke-width:0.25;stroke-linecap:round;stroke-miterlimit:4;stroke-dasharray:none;stroke-opacity:1"
       d="m 269.21323,80.768846 a 0.5,0.5 0 0 0 0.5,0.5 h 13 a 0.5,0.5 0 0 0 0.5,-0.5 v -0.5 h 0.3 a 0.5,0.5 0 0 0 0.5,-0.5 v -2.1 a 0.5,0.5 0 0 0 -0.5,-0.5 h -0.3 v -5.8 h 0.3 a 0.5,0.5 0 0 0 0.5,-0.5 v -2.1 a 0.5,0.5 0 0 0 -0.5,-0.5 h -0.3 v -0.5 a 0.5,0.5 0 0 0 -0.5,-0.5 h -13 a 0.5,0.5 0 0 0 -0.5,0.5 v 0.5 h -0.3 a 0.5,0.5 0 0 0 -0.5,0.5 v 2.1 a 0.5,0.5 0 0 0 0.5,0.5 h 0.3 v 5.8 h -0.3 a 0.5,0.5 0 0 0 -0.5,0.5 v 2.1 a 0.5,0.5 0 0 0 0.5,0.5 h 0.3 z"
       id="path1090" />
    <path
       style="font-size:12px;fill:none;fill-rule:evenodd;stroke:#000000;stroke-width:0.25;stroke-linecap:round;stroke-miterlimit:4;stroke-dasharray:none;stroke-opacity:1"
       d="m 250.16323,80.768846 a 0.5,0.5 0 0 0 0.5,0.5 h 13 a 0.5,0.5 0 0 0 0.5,-0.5 v -0.5 h 0.3 a 0.5,0.5 0 0 0 0.5,-0.5 v -2.1 a 0.5,0.5 0 0 0 -0.5,-0.5 h -0.3 v -5.8 h 0.3 a 0.5,0.5 0 0 0 0.5,-0.5 v -2.1 a 0.5,0.5 0 0 0 -0.5,-0.5 h -0.3 v -0.5 a 0.5,0.5 0 0 0 -0.5,-0.5 h -13 a 0.5,0.5 0 0 0 -0.5,0.5 v 0.5 h -0.3 a 0.5,0.5 0 0 0 -0.5,0.5 v 2.1 a 0.5,0.5 0 0 0 0.5,0.5 h 0.3 v 5.8 h -0.3 a 0.5,0.5 0 0 0 -0.5,0.5 v 2.1 a 0.5,0.5 0 0 0 0.5,0.5 h 0.3 z"
       id="path1088" />
    <path
       style="font-size:12px;fill:none;fill-rule:evenodd;stroke:#000000;stroke-width:0.25;stroke-linecap:round;stroke-miterlimit:4;stroke-dasharray:none;stroke-opacity:1"
       d="m 231.11323,80.768846 a 0.5,0.5 0 0 0 0.5,0.5 h 13 a 0.5,0.5 0 0 0 0.5,-0.5 v -0.5 h 0.3 a 0.5,0.5 0 0 0 0.5,-0.5 v -2.1 a 0.5,0.5 0 0 0 -0.5,-0.5 h -0.3 v -5.8 h 0.3 a 0.5,0.5 0 0 0 0.5,-0.5 v -2.1 a 0.5,0.5 0 0 0 -0.5,-0.5 h -0.3 v -0.5 a 0.5,0.5 0 0 0 -0.5,-0.5 h -13 a 0.5,0.5 0 0 0 -0.5,0.5 v 0.5 h -0.3 a 0.5,0.5 0 0 0 -0.5,0.5 v 2.1 a 0.5,0.5 0 0 0 0.5,0.5 h 0.3 v 5.8 h -0.3 a 0.5,0.5 0 0 0 -0.5,0.5 v 2.1 a 0.5,0.5 0 0 0 0.5,0.5 h 0.3 z"
       id="path1086" />
    <path
       style="font-size:12px;fill:none;fill-rule:evenodd;stroke:#000000;stroke-width:0.25;stroke-linecap:round;stroke-miterlimit:4;stroke-dasharray:none;stroke-opacity:1"
       d="m 212.06323,80.768846 a 0.5,0.5 0 0 0 0.5,0.5 h 13 a 0.5,0.5 0 0 0 0.5,-0.5 v -0.5 h 0.3 a 0.5,0.5 0 0 0 0.5,-0.5 v -2.1 a 0.5,0.5 0 0 0 -0.5,-0.5 h -0.3 v -5.8 h 0.3 a 0.5,0.5 0 0 0 0.5,-0.5 v -2.1 a 0.5,0.5 0 0 0 -0.5,-0.5 h -0.3 v -0.5 a 0.5,0.5 0 0 0 -0.5,-0.5 h -13 a 0.5,0.5 0 0 0 -0.5,0.5 v 0.5 h -0.3 a 0.5,0.5 0 0 0 -0.5,0.5 v 2.1 a 0.5,0.5 0 0 0 0.5,0.5 h 0.3 v 5.8 h -0.3 a 0.5,0.5 0 0 0 -0.5,0.5 v 2.1 a 0.5,0.5 0 0 0 0.5,0.5 h 0.3 z"
       id="path1084" />
    <path
       style="font-size:12px;fill:none;fill-rule:evenodd;stroke:#000000;stroke-width:0.25;stroke-linecap:round;stroke-miterlimit:4;stroke-dasharray:none;stroke-opacity:1"
       d="m 193.01323,80.768846 a 0.5,0.5 0 0 0 0.5,0.5 h 13 a 0.5,0.5 0 0 0 0.5,-0.5 v -0.5 h 0.3 a 0.5,0.5 0 0 0 0.5,-0.5 v -2.1 a 0.5,0.5 0 0 0 -0.5,-0.5 h -0.3 v -5.8 h 0.3 a 0.5,0.5 0 0 0 0.5,-0.5 v -2.1 a 0.5,0.5 0 0 0 -0.5,-0.5 h -0.3 v -0.5 a 0.5,0.5 0 0 0 -0.5,-0.5 h -13 a 0.5,0.5 0 0 0 -0.5,0.5 v 0.5 h -0.3 a 0.5,0.5 0 0 0 -0.5,0.5 v 2.1 a 0.5,0.5 0 0 0 0.5,0.5 h 0.3 v 5.8 h -0.3 a 0.5,0.5 0 0 0 -0.5,0.5 v 2.1 a 0.5,0.5 0 0 0 0.5,0.5 h 0.3 z"
       id="path1082" />
    <path
       style="font-size:12px;fill:none;fill-rule:evenodd;stroke:#000000;stroke-width:0.25;stroke-linecap:round;stroke-miterlimit:4;stroke-dasharray:none;stroke-opacity:1"
       d="m 173.96323,80.768846 a 0.5,0.5 0 0 0 0.5,0.5 h 13 a 0.5,0.5 0 0 0 0.5,-0.5 v -0.5 h 0.3 a 0.5,0.5 0 0 0 0.5,-0.5 v -2.1 a 0.5,0.5 0 0 0 -0.5,-0.5 h -0.3 v -5.8 h 0.3 a 0.5,0.5 0 0 0 0.5,-0.5 v -2.1 a 0.5,0.5 0 0 0 -0.5,-0.5 h -0.3 v -0.5 a 0.5,0.5 0 0 0 -0.5,-0.5 h -13 a 0.5,0.5 0 0 0 -0.5,0.5 v 0.5 h -0.3 a 0.5,0.5 0 0 0 -0.5,0.5 v 2.1 a 0.5,0.5 0 0 0 0.5,0.5 h 0.3 v 5.8 h -0.3 a 0.5,0.5 0 0 0 -0.5,0.5 v 2.1 a 0.5,0.5 0 0 0 0.5,0.5 h 0.3 z"
       id="path1080" />
    <path
       style="font-size:12px;fill:none;fill-rule:evenodd;stroke:#000000;stroke-width:0.25;stroke-linecap:round;stroke-miterlimit:4;stroke-dasharray:none;stroke-opacity:1"
       d="m 154.91323,80.768846 a 0.5,0.5 0 0 0 0.5,0.5 h 13 a 0.5,0.5 0 0 0 0.5,-0.5 v -0.5 h 0.3 a 0.5,0.5 0 0 0 0.5,-0.5 v -2.1 a 0.5,0.5 0 0 0 -0.5,-0.5 h -0.3 v -5.8 h 0.3 a 0.5,0.5 0 0 0 0.5,-0.5 v -2.1 a 0.5,0.5 0 0 0 -0.5,-0.5 h -0.3 v -0.5 a 0.5,0.5 0 0 0 -0.5,-0.5 h -13 a 0.5,0.5 0 0 0 -0.5,0.5 v 0.5 h -0.3 a 0.5,0.5 0 0 0 -0.5,0.5 v 2.1 a 0.5,0.5 0 0 0 0.5,0.5 h 0.3 v 5.8 h -0.3 a 0.5,0.5 0 0 0 -0.5,0.5 v 2.1 a 0.5,0.5 0 0 0 0.5,0.5 h 0.3 z"
       id="path1078" />
    <path
       style="font-size:12px;fill:none;fill-rule:evenodd;stroke:#000000;stroke-width:0.25;stroke-linecap:round;stroke-miterlimit:4;stroke-dasharray:none;stroke-opacity:1"
       d="m 135.86323,80.768846 a 0.5,0.5 0 0 0 0.5,0.5 h 13 a 0.5,0.5 0 0 0 0.5,-0.5 v -0.5 h 0.3 a 0.5,0.5 0 0 0 0.5,-0.5 v -2.1 a 0.5,0.5 0 0 0 -0.5,-0.5 h -0.3 v -5.8 h 0.3 a 0.5,0.5 0 0 0 0.5,-0.5 v -2.1 a 0.5,0.5 0 0 0 -0.5,-0.5 h -0.3 v -0.5 a 0.5,0.5 0 0 0 -0.5,-0.5 h -13 a 0.5,0.5 0 0 0 -0.5,0.5 v 0.5 h -0.3 a 0.5,0.5 0 0 0 -0.5,0.5 v 2.1 a 0.5,0.5 0 0 0 0.5,0.5 h 0.3 v 5.8 h -0.3 a 0.5,0.5 0 0 0 -0.5,0.5 v 2.1 a 0.5,0.5 0 0 0 0.5,0.5 h 0.3 z"
       id="path1076" />
    <path
       style="font-size:12px;fill:none;fill-rule:evenodd;stroke:#000000;stroke-width:0.25;stroke-linecap:round;stroke-miterlimit:4;stroke-dasharray:none;stroke-opacity:1"
       d="m 116.81323,80.768846 a 0.5,0.5 0 0 0 0.5,0.5 h 13 a 0.5,0.5 0 0 0 0.5,-0.5 v -0.5 h 0.3 a 0.5,0.5 0 0 0 0.5,-0.5 v -2.1 a 0.5,0.5 0 0 0 -0.5,-0.5 h -0.3 v -5.8 h 0.3 a 0.5,0.5 0 0 0 0.5,-0.5 v -2.1 a 0.5,0.5 0 0 0 -0.5,-0.5 h -0.3 v -0.5 a 0.5,0.5 0 0 0 -0.5,-0.5 h -13 a 0.5,0.5 0 0 0 -0.5,0.5 v 0.5 h -0.3 a 0.5,0.5 0 0 0 -0.5,0.5 v 2.1 a 0.5,0.5 0 0 0 0.5,0.5 h 0.3 v 5.8 h -0.3 a 0.5,0.5 0 0 0 -0.5,0.5 v 2.1 a 0.5,0.5 0 0 0 0.5,0.5 h 0.3 z"
       id="path1074" />
    <path
       style="font-size:12px;fill:none;fill-rule:evenodd;stroke:#000000;stroke-width:0.25;stroke-linecap:round;stroke-miterlimit:4;stroke-dasharray:none;stroke-opacity:1"
       d="m 97.763226,80.768846 a 0.5,0.5 0 0 0 0.5,0.5 h 13.000004 a 0.5,0.5 0 0 0 0.5,-0.5 v -0.5 h 0.3 a 0.5,0.5 0 0 0 0.5,-0.5 v -2.1 a 0.5,0.5 0 0 0 -0.5,-0.5 h -0.3 v -5.8 h 0.3 a 0.5,0.5 0 0 0 0.5,-0.5 v -2.1 a 0.5,0.5 0 0 0 -0.5,-0.5 h -0.3 v -0.5 a 0.5,0.5 0 0 0 -0.5,-0.5 H 98.263226 a 0.5,0.5 0 0 0 -0.5,0.5 v 0.5 h -0.3 a 0.5,0.5 0 0 0 -0.5,0.5 v 2.1 a 0.5,0.5 0 0 0 0.5,0.5 h 0.3 v 5.8 h -0.3 a 0.5,0.5 0 0 0 -0.5,0.5 v 2.1 a 0.5,0.5 0 0 0 0.5,0.5 h 0.3 z"
       id="path1072" />
    <path
       style="font-size:12px;fill:none;fill-rule:evenodd;stroke:#000000;stroke-width:0.25;stroke-linecap:round;stroke-miterlimit:4;stroke-dasharray:none;stroke-opacity:1"
       d="m 78.713226,80.768846 a 0.5,0.5 0 0 0 0.5,0.5 h 13 a 0.5,0.5 0 0 0 0.5,-0.5 v -0.5 h 0.3 a 0.5,0.5 0 0 0 0.5,-0.5 v -2.1 a 0.5,0.5 0 0 0 -0.5,-0.5 h -0.3 v -5.8 h 0.3 a 0.5,0.5 0 0 0 0.5,-0.5 v -2.1 a 0.5,0.5 0 0 0 -0.5,-0.5 h -0.3 v -0.5 a 0.5,0.5 0 0 0 -0.5,-0.5 h -13 a 0.5,0.5 0 0 0 -0.5,0.5 v 0.5 h -0.3 a 0.5,0.5 0 0 0 -0.5,0.5 v 2.1 a 0.5,0.5 0 0 0 0.5,0.5 h 0.3 v 5.8 h -0.3 a 0.5,0.5 0 0 0 -0.5,0.5 v 2.1 a 0.5,0.5 0 0 0 0.5,0.5 h 0.3 z"
       id="path1070" />
    <path
       style="font-size:12px;fill:none;fill-rule:evenodd;stroke:#000000;stroke-width:0.25;stroke-linecap:round;stroke-miterlimit:4;stroke-dasharray:none;stroke-opacity:1"
       d="m 59.663226,80.768846 a 0.5,0.5 0 0 0 0.5,0.5 h 13 a 0.5,0.5 0 0 0 0.5,-0.5 v -0.5 h 0.3 a 0.5,0.5 0 0 0 0.5,-0.5 v -2.1 a 0.5,0.5 0 0 0 -0.5,-0.5 h -0.3 v -5.8 h 0.3 a 0.5,0.5 0 0 0 0.5,-0.5 v -2.1 a 0.5,0.5 0 0 0 -0.5,-0.5 h -0.3 v -0.5 a 0.5,0.5 0 0 0 -0.5,-0.5 h -13 a 0.5,0.5 0 0 0 -0.5,0.5 v 0.5 h -0.3 a 0.5,0.5 0 0 0 -0.5,0.5 v 2.1 a 0.5,0.5 0 0 0 0.5,0.5 h 0.3 v 5.8 h -0.3 a 0.5,0.5 0 0 0 -0.5,0.5 v 2.1 a 0.5,0.5 0 0 0 0.5,0.5 h 0.3 z"
       id="path1068" />
    <path
       style="font-size:12px;fill:none;fill-rule:evenodd;stroke:#000000;stroke-width:0.25;stroke-linecap:round;stroke-miterlimit:4;stroke-dasharray:none;stroke-opacity:1"
       d="m 40.613226,80.768846 a 0.5,0.5 0 0 0 0.5,0.5 h 13 a 0.5,0.5 0 0 0 0.5,-0.5 v -0.5 h 0.3 a 0.5,0.5 0 0 0 0.5,-0.5 v -2.1 a 0.5,0.5 0 0 0 -0.5,-0.5 h -0.3 v -5.8 h 0.3 a 0.5,0.5 0 0 0 0.5,-0.5 v -2.1 a 0.5,0.5 0 0 0 -0.5,-0.5 h -0.3 v -0.5 a 0.5,0.5 0 0 0 -0.5,-0.5 h -13 a 0.5,0.5 0 0 0 -0.5,0.5 v 0.5 h -0.3 a 0.5,0.5 0 0 0 -0.5,0.5 v 2.1 a 0.5,0.5 0 0 0 0.5,0.5 h 0.3 v 5.8 h -0.3 a 0.5,0.5 0 0 0 -0.5,0.5 v 2.1 a 0.5,0.5 0 0 0 0.5,0.5 h 0.3 z"
       id="path1066" />
    <path
       style="font-size:12px;fill:none;fill-rule:evenodd;stroke:#000000;stroke-width:0.25;stroke-linecap:round;stroke-miterlimit:4;stroke-dasharray:none;stroke-opacity:1"
       d="m 21.563226,80.768846 a 0.5,0.5 0 0 0 0.5,0.5 h 13 a 0.5,0.5 0 0 0 0.5,-0.5 v -0.5 h 0.3 a 0.5,0.5 0 0 0 0.5,-0.5 v -2.1 a 0.5,0.5 0 0 0 -0.5,-0.5 h -0.3 v -5.8 h 0.3 a 0.5,0.5 0 0 0 0.5,-0.5 v -2.1 a 0.5,0.5 0 0 0 -0.5,-0.5 h -0.3 v -0.5 a 0.5,0.5 0 0 0 -0.5,-0.5 h -13 a 0.5,0.5 0 0 0 -0.5,0.5 v 0.5 h -0.3 a 0.5,0.5 0 0 0 -0.5,0.5 v 2.1 a 0.5,0.5 0 0 0 0.5,0.5 h 0.3 v 5.8 h -0.3 a 0.5,0.5 0 0 0 -0.5,0.5 v 2.1 a 0.5,0.5 0 0 0 0.5,0.5 h 0.3 z"
       id="path1064" />
    <path
       style="font-size:12px;fill:none;fill-rule:evenodd;stroke:#000000;stroke-width:0.25;stroke-linecap:round;stroke-miterlimit:4;stroke-dasharray:none;stroke-opacity:1"
       d="m 2.5132257,80.768846 a 0.5,0.5 0 0 0 0.5,0.5 H 16.013226 a 0.5,0.5 0 0 0 0.5,-0.5 v -0.5 h 0.3 a 0.5,0.5 0 0 0 0.5,-0.5 v -2.1 a 0.5,0.5 0 0 0 -0.5,-0.5 h -0.3 v -5.8 h 0.3 a 0.5,0.5 0 0 0 0.5,-0.5 v -2.1 a 0.5,0.5 0 0 0 -0.5,-0.5 h -0.3 v -0.5 a 0.5,0.5 0 0 0 -0.5,-0.5 H 3.0132257 a 0.5,0.5 0 0 0 -0.5,0.5 v 0.5 h -0.3 a 0.5,0.5 0 0 0 -0.5,0.5 v 2.1 a 0.5,0.5 0 0 0 0.5,0.5 h 0.3 v 5.8 h -0.3 a 0.5,0.5 0 0 0 -0.5,0.5 v 2.1 a 0.5,0.5 0 0 0 0.5,0.5 h 0.3 z"
       id="path1062" />
    <path
       style="font-size:12px;fill:none;fill-rule:evenodd;stroke:#000000;stroke-width:0.25;stroke-linecap:round;stroke-miterlimit:4;stroke-dasharray:none;stroke-opacity:1"
       d="m 269.21323,61.718846 a 0.5,0.5 0 0 0 0.5,0.5 h 13 a 0.5,0.5 0 0 0 0.5,-0.5 v -0.5 h 0.3 a 0.5,0.5 0 0 0 0.5,-0.5 v -2.1 a 0.5,0.5 0 0 0 -0.5,-0.5 h -0.3 v -5.8 h 0.3 a 0.5,0.5 0 0 0 0.5,-0.5 v -2.1 a 0.5,0.5 0 0 0 -0.5,-0.5 h -0.3 v -0.5 a 0.5,0.5 0 0 0 -0.5,-0.5 h -13 a 0.5,0.5 0 0 0 -0.5,0.5 v 0.5 h -0.3 a 0.5,0.5 0 0 0 -0.5,0.5 v 2.1 a 0.5,0.5 0 0 0 0.5,0.5 h 0.3 v 5.8 h -0.3 a 0.5,0.5 0 0 0 -0.5,0.5 v 2.1 a 0.5,0.5 0 0 0 0.5,0.5 h 0.3 z"
       id="path1060" />
    <path
       style="font-size:12px;fill:none;fill-rule:evenodd;stroke:#000000;stroke-width:0.25;stroke-linecap:round;stroke-miterlimit:4;stroke-dasharray:none;stroke-opacity:1"
       d="m 250.16323,61.718846 a 0.5,0.5 0 0 0 0.5,0.5 h 13 a 0.5,0.5 0 0 0 0.5,-0.5 v -0.5 h 0.3 a 0.5,0.5 0 0 0 0.5,-0.5 v -2.1 a 0.5,0.5 0 0 0 -0.5,-0.5 h -0.3 v -5.8 h 0.3 a 0.5,0.5 0 0 0 0.5,-0.5 v -2.1 a 0.5,0.5 0 0 0 -0.5,-0.5 h -0.3 v -0.5 a 0.5,0.5 0 0 0 -0.5,-0.5 h -13 a 0.5,0.5 0 0 0 -0.5,0.5 v 0.5 h -0.3 a 0.5,0.5 0 0 0 -0.5,0.5 v 2.1 a 0.5,0.5 0 0 0 0.5,0.5 h 0.3 v 5.8 h -0.3 a 0.5,0.5 0 0 0 -0.5,0.5 v 2.1 a 0.5,0.5 0 0 0 0.5,0.5 h 0.3 z"
       id="path1058" />
    <path
       style="font-size:12px;fill:none;fill-rule:evenodd;stroke:#000000;stroke-width:0.25;stroke-linecap:round;stroke-miterlimit:4;stroke-dasharray:none;stroke-opacity:1"
       d="m 231.11323,61.718846 a 0.5,0.5 0 0 0 0.5,0.5 h 13 a 0.5,0.5 0 0 0 0.5,-0.5 v -0.5 h 0.3 a 0.5,0.5 0 0 0 0.5,-0.5 v -2.1 a 0.5,0.5 0 0 0 -0.5,-0.5 h -0.3 v -5.8 h 0.3 a 0.5,0.5 0 0 0 0.5,-0.5 v -2.1 a 0.5,0.5 0 0 0 -0.5,-0.5 h -0.3 v -0.5 a 0.5,0.5 0 0 0 -0.5,-0.5 h -13 a 0.5,0.5 0 0 0 -0.5,0.5 v 0.5 h -0.3 a 0.5,0.5 0 0 0 -0.5,0.5 v 2.1 a 0.5,0.5 0 0 0 0.5,0.5 h 0.3 v 5.8 h -0.3 a 0.5,0.5 0 0 0 -0.5,0.5 v 2.1 a 0.5,0.5 0 0 0 0.5,0.5 h 0.3 z"
       id="path1056" />
    <path
       style="font-size:12px;fill:none;fill-rule:evenodd;stroke:#000000;stroke-width:0.25;stroke-linecap:round;stroke-miterlimit:4;stroke-dasharray:none;stroke-opacity:1"
       d="m 212.06323,61.718846 a 0.5,0.5 0 0 0 0.5,0.5 h 13 a 0.5,0.5 0 0 0 0.5,-0.5 v -0.5 h 0.3 a 0.5,0.5 0 0 0 0.5,-0.5 v -2.1 a 0.5,0.5 0 0 0 -0.5,-0.5 h -0.3 v -5.8 h 0.3 a 0.5,0.5 0 0 0 0.5,-0.5 v -2.1 a 0.5,0.5 0 0 0 -0.5,-0.5 h -0.3 v -0.5 a 0.5,0.5 0 0 0 -0.5,-0.5 h -13 a 0.5,0.5 0 0 0 -0.5,0.5 v 0.5 h -0.3 a 0.5,0.5 0 0 0 -0.5,0.5 v 2.1 a 0.5,0.5 0 0 0 0.5,0.5 h 0.3 v 5.8 h -0.3 a 0.5,0.5 0 0 0 -0.5,0.5 v 2.1 a 0.5,0.5 0 0 0 0.5,0.5 h 0.3 z"
       id="path1054" />
    <path
       style="font-size:12px;fill:none;fill-rule:evenodd;stroke:#000000;stroke-width:0.25;stroke-linecap:round;stroke-miterlimit:4;stroke-dasharray:none;stroke-opacity:1"
       d="m 193.01323,61.718846 a 0.5,0.5 0 0 0 0.5,0.5 h 13 a 0.5,0.5 0 0 0 0.5,-0.5 v -0.5 h 0.3 a 0.5,0.5 0 0 0 0.5,-0.5 v -2.1 a 0.5,0.5 0 0 0 -0.5,-0.5 h -0.3 v -5.8 h 0.3 a 0.5,0.5 0 0 0 0.5,-0.5 v -2.1 a 0.5,0.5 0 0 0 -0.5,-0.5 h -0.3 v -0.5 a 0.5,0.5 0 0 0 -0.5,-0.5 h -13 a 0.5,0.5 0 0 0 -0.5,0.5 v 0.5 h -0.3 a 0.5,0.5 0 0 0 -0.5,0.5 v 2.1 a 0.5,0.5 0 0 0 0.5,0.5 h 0.3 v 5.8 h -0.3 a 0.5,0.5 0 0 0 -0.5,0.5 v 2.1 a 0.5,0.5 0 0 0 0.5,0.5 h 0.3 z"
       id="path1052" />
    <path
       style="font-size:12px;fill:none;fill-rule:evenodd;stroke:#000000;stroke-width:0.25;stroke-linecap:round;stroke-miterlimit:4;stroke-dasharray:none;stroke-opacity:1"
       d="m 173.96323,61.718846 a 0.5,0.5 0 0 0 0.5,0.5 h 13 a 0.5,0.5 0 0 0 0.5,-0.5 v -0.5 h 0.3 a 0.5,0.5 0 0 0 0.5,-0.5 v -2.1 a 0.5,0.5 0 0 0 -0.5,-0.5 h -0.3 v -5.8 h 0.3 a 0.5,0.5 0 0 0 0.5,-0.5 v -2.1 a 0.5,0.5 0 0 0 -0.5,-0.5 h -0.3 v -0.5 a 0.5,0.5 0 0 0 -0.5,-0.5 h -13 a 0.5,0.5 0 0 0 -0.5,0.5 v 0.5 h -0.3 a 0.5,0.5 0 0 0 -0.5,0.5 v 2.1 a 0.5,0.5 0 0 0 0.5,0.5 h 0.3 v 5.8 h -0.3 a 0.5,0.5 0 0 0 -0.5,0.5 v 2.1 a 0.5,0.5 0 0 0 0.5,0.5 h 0.3 z"
       id="path1050" />
    <path
       style="font-size:12px;fill:none;fill-rule:evenodd;stroke:#000000;stroke-width:0.25;stroke-linecap:round;stroke-miterlimit:4;stroke-dasharray:none;stroke-opacity:1"
       d="m 97.763226,61.718846 a 0.5,0.5 0 0 0 0.5,0.5 h 13.000004 a 0.5,0.5 0 0 0 0.5,-0.5 v -0.5 h 0.3 a 0.5,0.5 0 0 0 0.5,-0.5 v -2.1 a 0.5,0.5 0 0 0 -0.5,-0.5 h -0.3 v -5.8 h 0.3 a 0.5,0.5 0 0 0 0.5,-0.5 v -2.1 a 0.5,0.5 0 0 0 -0.5,-0.5 h -0.3 v -0.5 a 0.5,0.5 0 0 0 -0.5,-0.5 H 98.263226 a 0.5,0.5 0 0 0 -0.5,0.5 v 0.5 h -0.3 a 0.5,0.5 0 0 0 -0.5,0.5 v 2.1 a 0.5,0.5 0 0 0 0.5,0.5 h 0.3 v 5.8 h -0.3 a 0.5,0.5 0 0 0 -0.5,0.5 v 2.1 a 0.5,0.5 0 0 0 0.5,0.5 h 0.3 z"
       id="path1048" />
    <path
       style="font-size:12px;fill:none;fill-rule:evenodd;stroke:#000000;stroke-width:0.25;stroke-linecap:round;stroke-miterlimit:4;stroke-dasharray:none;stroke-opacity:1"
       d="m 78.713226,61.718846 a 0.5,0.5 0 0 0 0.5,0.5 h 13 a 0.5,0.5 0 0 0 0.5,-0.5 v -0.5 h 0.3 a 0.5,0.5 0 0 0 0.5,-0.5 v -2.1 a 0.5,0.5 0 0 0 -0.5,-0.5 h -0.3 v -5.8 h 0.3 a 0.5,0.5 0 0 0 0.5,-0.5 v -2.1 a 0.5,0.5 0 0 0 -0.5,-0.5 h -0.3 v -0.5 a 0.5,0.5 0 0 0 -0.5,-0.5 h -13 a 0.5,0.5 0 0 0 -0.5,0.5 v 0.5 h -0.3 a 0.5,0.5 0 0 0 -0.5,0.5 v 2.1 a 0.5,0.5 0 0 0 0.5,0.5 h 0.3 v 5.8 h -0.3 a 0.5,0.5 0 0 0 -0.5,0.5 v 2.1 a 0.5,0.5 0 0 0 0.5,0.5 h 0.3 z"
       id="path1046" />
    <path
       style="font-size:12px;fill:none;fill-rule:evenodd;stroke:#000000;stroke-width:0.25;stroke-linecap:round;stroke-miterlimit:4;stroke-dasharray:none;stroke-opacity:1"
       d="m 59.663226,61.718846 a 0.5,0.5 0 0 0 0.5,0.5 h 13 a 0.5,0.5 0 0 0 0.5,-0.5 v -0.5 h 0.3 a 0.5,0.5 0 0 0 0.5,-0.5 v -2.1 a 0.5,0.5 0 0 0 -0.5,-0.5 h -0.3 v -5.8 h 0.3 a 0.5,0.5 0 0 0 0.5,-0.5 v -2.1 a 0.5,0.5 0 0 0 -0.5,-0.5 h -0.3 v -0.5 a 0.5,0.5 0 0 0 -0.5,-0.5 h -13 a 0.5,0.5 0 0 0 -0.5,0.5 v 0.5 h -0.3 a 0.5,0.5 0 0 0 -0.5,0.5 v 2.1 a 0.5,0.5 0 0 0 0.5,0.5 h 0.3 v 5.8 h -0.3 a 0.5,0.5 0 0 0 -0.5,0.5 v 2.1 a 0.5,0.5 0 0 0 0.5,0.5 h 0.3 z"
       id="path1044" />
    <path
       style="font-size:12px;fill:none;fill-rule:evenodd;stroke:#000000;stroke-width:0.25;stroke-linecap:round;stroke-miterlimit:4;stroke-dasharray:none;stroke-opacity:1"
       d="m 40.613226,61.718846 a 0.5,0.5 0 0 0 0.5,0.5 h 13 a 0.5,0.5 0 0 0 0.5,-0.5 v -0.5 h 0.3 a 0.5,0.5 0 0 0 0.5,-0.5 v -2.1 a 0.5,0.5 0 0 0 -0.5,-0.5 h -0.3 v -5.8 h 0.3 a 0.5,0.5 0 0 0 0.5,-0.5 v -2.1 a 0.5,0.5 0 0 0 -0.5,-0.5 h -0.3 v -0.5 a 0.5,0.5 0 0 0 -0.5,-0.5 h -13 a 0.5,0.5 0 0 0 -0.5,0.5 v 0.5 h -0.3 a 0.5,0.5 0 0 0 -0.5,0.5 v 2.1 a 0.5,0.5 0 0 0 0.5,0.5 h 0.3 v 5.8 h -0.3 a 0.5,0.5 0 0 0 -0.5,0.5 v 2.1 a 0.5,0.5 0 0 0 0.5,0.5 h 0.3 z"
       id="path1042" />
    <path
       style="font-size:12px;fill:none;fill-rule:evenodd;stroke:#000000;stroke-width:0.25;stroke-linecap:round;stroke-miterlimit:4;stroke-dasharray:none;stroke-opacity:1"
       d="m 21.563226,61.718846 a 0.5,0.5 0 0 0 0.5,0.5 h 13 a 0.5,0.5 0 0 0 0.5,-0.5 v -0.5 h 0.3 a 0.5,0.5 0 0 0 0.5,-0.5 v -2.1 a 0.5,0.5 0 0 0 -0.5,-0.5 h -0.3 v -5.8 h 0.3 a 0.5,0.5 0 0 0 0.5,-0.5 v -2.1 a 0.5,0.5 0 0 0 -0.5,-0.5 h -0.3 v -0.5 a 0.5,0.5 0 0 0 -0.5,-0.5 h -13 a 0.5,0.5 0 0 0 -0.5,0.5 v 0.5 h -0.3 a 0.5,0.5 0 0 0 -0.5,0.5 v 2.1 a 0.5,0.5 0 0 0 0.5,0.5 h 0.3 v 5.8 h -0.3 a 0.5,0.5 0 0 0 -0.5,0.5 v 2.1 a 0.5,0.5 0 0 0 0.5,0.5 h 0.3 z"
       id="path1040" />
    <path
       style="font-size:12px;fill:none;fill-rule:evenodd;stroke:#000000;stroke-width:0.25;stroke-linecap:round;stroke-miterlimit:4;stroke-dasharray:none;stroke-opacity:1"
       d="m 2.5132257,61.718846 a 0.5,0.5 0 0 0 0.5,0.5 H 16.013226 a 0.5,0.5 0 0 0 0.5,-0.5 v -0.5 h 0.3 a 0.5,0.5 0 0 0 0.5,-0.5 v -2.1 a 0.5,0.5 0 0 0 -0.5,-0.5 h -0.3 v -5.8 h 0.3 a 0.5,0.5 0 0 0 0.5,-0.5 v -2.1 a 0.5,0.5 0 0 0 -0.5,-0.5 h -0.3 v -0.5 a 0.5,0.5 0 0 0 -0.5,-0.5 H 3.0132257 a 0.5,0.5 0 0 0 -0.5,0.5 v 0.5 h -0.3 a 0.5,0.5 0 0 0 -0.5,0.5 v 2.1 a 0.5,0.5 0 0 0 0.5,0.5 h 0.3 v 5.8 h -0.3 a 0.5,0.5 0 0 0 -0.5,0.5 v 2.1 a 0.5,0.5 0 0 0 0.5,0.5 h 0.3 z"
       id="path1038" />
    <path
       style="font-size:12px;fill:none;fill-rule:evenodd;stroke:#000000;stroke-width:0.25;stroke-linecap:round;stroke-miterlimit:4;stroke-dasharray:none;stroke-opacity:1"
       d="m 269.21323,42.668846 a 0.5,0.5 0 0 0 0.5,0.5 h 13 a 0.5,0.5 0 0 0 0.5,-0.5 v -0.5 h 0.3 a 0.5,0.5 0 0 0 0.5,-0.5 v -2.1 a 0.5,0.5 0 0 0 -0.5,-0.5 h -0.3 v -5.8 h 0.3 a 0.5,0.5 0 0 0 0.5,-0.5 v -2.1 a 0.5,0.5 0 0 0 -0.5,-0.5 h -0.3 v -0.5 a 0.5,0.5 0 0 0 -0.5,-0.5 h -13 a 0.5,0.5 0 0 0 -0.5,0.5 v 0.5 h -0.3 a 0.5,0.5 0 0 0 -0.5,0.5 v 2.1 a 0.5,0.5 0 0 0 0.5,0.5 h 0.3 v 5.8 h -0.3 a 0.5,0.5 0 0 0 -0.5,0.5 v 2.1 a 0.5,0.5 0 0 0 0.5,0.5 h 0.3 z"
       id="path1036" />
    <path
       style="font-size:12px;fill:none;fill-rule:evenodd;stroke:#000000;stroke-width:0.25;stroke-linecap:round;stroke-miterlimit:4;stroke-dasharray:none;stroke-opacity:1"
       d="m 250.16323,42.668846 a 0.5,0.5 0 0 0 0.5,0.5 h 13 a 0.5,0.5 0 0 0 0.5,-0.5 v -0.5 h 0.3 a 0.5,0.5 0 0 0 0.5,-0.5 v -2.1 a 0.5,0.5 0 0 0 -0.5,-0.5 h -0.3 v -5.8 h 0.3 a 0.5,0.5 0 0 0 0.5,-0.5 v -2.1 a 0.5,0.5 0 0 0 -0.5,-0.5 h -0.3 v -0.5 a 0.5,0.5 0 0 0 -0.5,-0.5 h -13 a 0.5,0.5 0 0 0 -0.5,0.5 v 0.5 h -0.3 a 0.5,0.5 0 0 0 -0.5,0.5 v 2.1 a 0.5,0.5 0 0 0 0.5,0.5 h 0.3 v 5.8 h -0.3 a 0.5,0.5 0 0 0 -0.5,0.5 v 2.1 a 0.5,0.5 0 0 0 0.5,0.5 h 0.3 z"
       id="path1034" />
    <path
       style="font-size:12px;fill:none;fill-rule:evenodd;stroke:#000000;stroke-width:0.25;stroke-linecap:round;stroke-miterlimit:4;stroke-dasharray:none;stroke-opacity:1"
       d="m 231.11323,42.668846 a 0.5,0.5 0 0 0 0.5,0.5 h 13 a 0.5,0.5 0 0 0 0.5,-0.5 v -0.5 h 0.3 a 0.5,0.5 0 0 0 0.5,-0.5 v -2.1 a 0.5,0.5 0 0 0 -0.5,-0.5 h -0.3 v -5.8 h 0.3 a 0.5,0.5 0 0 0 0.5,-0.5 v -2.1 a 0.5,0.5 0 0 0 -0.5,-0.5 h -0.3 v -0.5 a 0.5,0.5 0 0 0 -0.5,-0.5 h -13 a 0.5,0.5 0 0 0 -0.5,0.5 v 0.5 h -0.3 a 0.5,0.5 0 0 0 -0.5,0.5 v 2.1 a 0.5,0.5 0 0 0 0.5,0.5 h 0.3 v 5.8 h -0.3 a 0.5,0.5 0 0 0 -0.5,0.5 v 2.1 a 0.5,0.5 0 0 0 0.5,0.5 h 0.3 z"
       id="path1032" />
    <path
       style="font-size:12px;fill:none;fill-rule:evenodd;stroke:#000000;stroke-width:0.25;stroke-linecap:round;stroke-miterlimit:4;stroke-dasharray:none;stroke-opacity:1"
       d="m 212.06323,42.668846 a 0.5,0.5 0 0 0 0.5,0.5 h 13 a 0.5,0.5 0 0 0 0.5,-0.5 v -0.5 h 0.3 a 0.5,0.5 0 0 0 0.5,-0.5 v -2.1 a 0.5,0.5 0 0 0 -0.5,-0.5 h -0.3 v -5.8 h 0.3 a 0.5,0.5 0 0 0 0.5,-0.5 v -2.1 a 0.5,0.5 0 0 0 -0.5,-0.5 h -0.3 v -0.5 a 0.5,0.5 0 0 0 -0.5,-0.5 h -13 a 0.5,0.5 0 0 0 -0.5,0.5 v 0.5 h -0.3 a 0.5,0.5 0 0 0 -0.5,0.5 v 2.1 a 0.5,0.5 0 0 0 0.5,0.5 h 0.3 v 5.8 h -0.3 a 0.5,0.5 0 0 0 -0.5,0.5 v 2.1 a 0.5,0.5 0 0 0 0.5,0.5 h 0.3 z"
       id="path1030" />
    <path
       style="font-size:12px;fill:none;fill-rule:evenodd;stroke:#000000;stroke-width:0.25;stroke-linecap:round;stroke-miterlimit:4;stroke-dasharray:none;stroke-opacity:1"
       d="m 193.01323,42.668846 a 0.5,0.5 0 0 0 0.5,0.5 h 13 a 0.5,0.5 0 0 0 0.5,-0.5 v -0.5 h 0.3 a 0.5,0.5 0 0 0 0.5,-0.5 v -2.1 a 0.5,0.5 0 0 0 -0.5,-0.5 h -0.3 v -5.8 h 0.3 a 0.5,0.5 0 0 0 0.5,-0.5 v -2.1 a 0.5,0.5 0 0 0 -0.5,-0.5 h -0.3 v -0.5 a 0.5,0.5 0 0 0 -0.5,-0.5 h -13 a 0.5,0.5 0 0 0 -0.5,0.5 v 0.5 h -0.3 a 0.5,0.5 0 0 0 -0.5,0.5 v 2.1 a 0.5,0.5 0 0 0 0.5,0.5 h 0.3 v 5.8 h -0.3 a 0.5,0.5 0 0 0 -0.5,0.5 v 2.1 a 0.5,0.5 0 0 0 0.5,0.5 h 0.3 z"
       id="path1028" />
    <path
       style="font-size:12px;fill:none;fill-rule:evenodd;stroke:#000000;stroke-width:0.25;stroke-linecap:round;stroke-miterlimit:4;stroke-dasharray:none;stroke-opacity:1"
       d="m 173.96323,42.668846 a 0.5,0.5 0 0 0 0.5,0.5 h 13 a 0.5,0.5 0 0 0 0.5,-0.5 v -0.5 h 0.3 a 0.5,0.5 0 0 0 0.5,-0.5 v -2.1 a 0.5,0.5 0 0 0 -0.5,-0.5 h -0.3 v -5.8 h 0.3 a 0.5,0.5 0 0 0 0.5,-0.5 v -2.1 a 0.5,0.5 0 0 0 -0.5,-0.5 h -0.3 v -0.5 a 0.5,0.5 0 0 0 -0.5,-0.5 h -13 a 0.5,0.5 0 0 0 -0.5,0.5 v 0.5 h -0.3 a 0.5,0.5 0 0 0 -0.5,0.5 v 2.1 a 0.5,0.5 0 0 0 0.5,0.5 h 0.3 v 5.8 h -0.3 a 0.5,0.5 0 0 0 -0.5,0.5 v 2.1 a 0.5,0.5 0 0 0 0.5,0.5 h 0.3 z"
       id="path1026" />
    <path
       style="font-size:12px;fill:none;fill-rule:evenodd;stroke:#000000;stroke-width:0.25;stroke-linecap:round;stroke-miterlimit:4;stroke-dasharray:none;stroke-opacity:1"
       d="m 154.91323,42.668846 a 0.5,0.5 0 0 0 0.5,0.5 h 13 a 0.5,0.5 0 0 0 0.5,-0.5 v -0.5 h 0.3 a 0.5,0.5 0 0 0 0.5,-0.5 v -2.1 a 0.5,0.5 0 0 0 -0.5,-0.5 h -0.3 v -5.8 h 0.3 a 0.5,0.5 0 0 0 0.5,-0.5 v -2.1 a 0.5,0.5 0 0 0 -0.5,-0.5 h -0.3 v -0.5 a 0.5,0.5 0 0 0 -0.5,-0.5 h -13 a 0.5,0.5 0 0 0 -0.5,0.5 v 0.5 h -0.3 a 0.5,0.5 0 0 0 -0.5,0.5 v 2.1 a 0.5,0.5 0 0 0 0.5,0.5 h 0.3 v 5.8 h -0.3 a 0.5,0.5 0 0 0 -0.5,0.5 v 2.1 a 0.5,0.5 0 0 0 0.5,0.5 h 0.3 z"
       id="path1024" />
    <path
       style="font-size:12px;fill:none;fill-rule:evenodd;stroke:#000000;stroke-width:0.25;stroke-linecap:round;stroke-miterlimit:4;stroke-dasharray:none;stroke-opacity:1"
       d="m 135.86323,42.668846 a 0.5,0.5 0 0 0 0.5,0.5 h 13 a 0.5,0.5 0 0 0 0.5,-0.5 v -0.5 h 0.3 a 0.5,0.5 0 0 0 0.5,-0.5 v -2.1 a 0.5,0.5 0 0 0 -0.5,-0.5 h -0.3 v -5.8 h 0.3 a 0.5,0.5 0 0 0 0.5,-0.5 v -2.1 a 0.5,0.5 0 0 0 -0.5,-0.5 h -0.3 v -0.5 a 0.5,0.5 0 0 0 -0.5,-0.5 h -13 a 0.5,0.5 0 0 0 -0.5,0.5 v 0.5 h -0.3 a 0.5,0.5 0 0 0 -0.5,0.5 v 2.1 a 0.5,0.5 0 0 0 0.5,0.5 h 0.3 v 5.8 h -0.3 a 0.5,0.5 0 0 0 -0.5,0.5 v 2.1 a 0.5,0.5 0 0 0 0.5,0.5 h 0.3 z"
       id="path1022" />
    <path
       style="font-size:12px;fill:none;fill-rule:evenodd;stroke:#000000;stroke-width:0.25;stroke-linecap:round;stroke-miterlimit:4;stroke-dasharray:none;stroke-opacity:1"
       d="m 116.81323,42.668846 a 0.5,0.5 0 0 0 0.5,0.5 h 13 a 0.5,0.5 0 0 0 0.5,-0.5 v -0.5 h 0.3 a 0.5,0.5 0 0 0 0.5,-0.5 v -2.1 a 0.5,0.5 0 0 0 -0.5,-0.5 h -0.3 v -5.8 h 0.3 a 0.5,0.5 0 0 0 0.5,-0.5 v -2.1 a 0.5,0.5 0 0 0 -0.5,-0.5 h -0.3 v -0.5 a 0.5,0.5 0 0 0 -0.5,-0.5 h -13 a 0.5,0.5 0 0 0 -0.5,0.5 v 0.5 h -0.3 a 0.5,0.5 0 0 0 -0.5,0.5 v 2.1 a 0.5,0.5 0 0 0 0.5,0.5 h 0.3 v 5.8 h -0.3 a 0.5,0.5 0 0 0 -0.5,0.5 v 2.1 a 0.5,0.5 0 0 0 0.5,0.5 h 0.3 z"
       id="path1020" />
    <path
       style="font-size:12px;fill:none;fill-rule:evenodd;stroke:#000000;stroke-width:0.25;stroke-linecap:round;stroke-miterlimit:4;stroke-dasharray:none;stroke-opacity:1"
       d="m 97.763226,42.668846 a 0.5,0.5 0 0 0 0.5,0.5 h 13.000004 a 0.5,0.5 0 0 0 0.5,-0.5 v -0.5 h 0.3 a 0.5,0.5 0 0 0 0.5,-0.5 v -2.1 a 0.5,0.5 0 0 0 -0.5,-0.5 h -0.3 v -5.8 h 0.3 a 0.5,0.5 0 0 0 0.5,-0.5 v -2.1 a 0.5,0.5 0 0 0 -0.5,-0.5 h -0.3 v -0.5 a 0.5,0.5 0 0 0 -0.5,-0.5 H 98.263226 a 0.5,0.5 0 0 0 -0.5,0.5 v 0.5 h -0.3 a 0.5,0.5 0 0 0 -0.5,0.5 v 2.1 a 0.5,0.5 0 0 0 0.5,0.5 h 0.3 v 5.8 h -0.3 a 0.5,0.5 0 0 0 -0.5,0.5 v 2.1 a 0.5,0.5 0 0 0 0.5,0.5 h 0.3 z"
       id="path1018" />
    <path
       style="font-size:12px;fill:none;fill-rule:evenodd;stroke:#000000;stroke-width:0.25;stroke-linecap:round;stroke-miterlimit:4;stroke-dasharray:none;stroke-opacity:1"
       d="m 78.713226,42.668846 a 0.5,0.5 0 0 0 0.5,0.5 h 13 a 0.5,0.5 0 0 0 0.5,-0.5 v -0.5 h 0.3 a 0.5,0.5 0 0 0 0.5,-0.5 v -2.1 a 0.5,0.5 0 0 0 -0.5,-0.5 h -0.3 v -5.8 h 0.3 a 0.5,0.5 0 0 0 0.5,-0.5 v -2.1 a 0.5,0.5 0 0 0 -0.5,-0.5 h -0.3 v -0.5 a 0.5,0.5 0 0 0 -0.5,-0.5 h -13 a 0.5,0.5 0 0 0 -0.5,0.5 v 0.5 h -0.3 a 0.5,0.5 0 0 0 -0.5,0.5 v 2.1 a 0.5,0.5 0 0 0 0.5,0.5 h 0.3 v 5.8 h -0.3 a 0.5,0.5 0 0 0 -0.5,0.5 v 2.1 a 0.5,0.5 0 0 0 0.5,0.5 h 0.3 z"
       id="path1016" />
    <path
       style="font-size:12px;fill:none;fill-rule:evenodd;stroke:#000000;stroke-width:0.25;stroke-linecap:round;stroke-miterlimit:4;stroke-dasharray:none;stroke-opacity:1"
       d="m 59.663226,42.668846 a 0.5,0.5 0 0 0 0.5,0.5 h 13 a 0.5,0.5 0 0 0 0.5,-0.5 v -0.5 h 0.3 a 0.5,0.5 0 0 0 0.5,-0.5 v -2.1 a 0.5,0.5 0 0 0 -0.5,-0.5 h -0.3 v -5.8 h 0.3 a 0.5,0.5 0 0 0 0.5,-0.5 v -2.1 a 0.5,0.5 0 0 0 -0.5,-0.5 h -0.3 v -0.5 a 0.5,0.5 0 0 0 -0.5,-0.5 h -13 a 0.5,0.5 0 0 0 -0.5,0.5 v 0.5 h -0.3 a 0.5,0.5 0 0 0 -0.5,0.5 v 2.1 a 0.5,0.5 0 0 0 0.5,0.5 h 0.3 v 5.8 h -0.3 a 0.5,0.5 0 0 0 -0.5,0.5 v 2.1 a 0.5,0.5 0 0 0 0.5,0.5 h 0.3 z"
       id="path1014" />
    <path
       style="font-size:12px;fill:none;fill-rule:evenodd;stroke:#000000;stroke-width:0.25;stroke-linecap:round;stroke-miterlimit:4;stroke-dasharray:none;stroke-opacity:1"
       d="m 40.613226,42.668846 a 0.5,0.5 0 0 0 0.5,0.5 h 13 a 0.5,0.5 0 0 0 0.5,-0.5 v -0.5 h 0.3 a 0.5,0.5 0 0 0 0.5,-0.5 v -2.1 a 0.5,0.5 0 0 0 -0.5,-0.5 h -0.3 v -5.8 h 0.3 a 0.5,0.5 0 0 0 0.5,-0.5 v -2.1 a 0.5,0.5 0 0 0 -0.5,-0.5 h -0.3 v -0.5 a 0.5,0.5 0 0 0 -0.5,-0.5 h -13 a 0.5,0.5 0 0 0 -0.5,0.5 v 0.5 h -0.3 a 0.5,0.5 0 0 0 -0.5,0.5 v 2.1 a 0.5,0.5 0 0 0 0.5,0.5 h 0.3 v 5.8 h -0.3 a 0.5,0.5 0 0 0 -0.5,0.5 v 2.1 a 0.5,0.5 0 0 0 0.5,0.5 h 0.3 z"
       id="path1012" />
    <path
       style="font-size:12px;fill:none;fill-rule:evenodd;stroke:#000000;stroke-width:0.25;stroke-linecap:round;stroke-miterlimit:4;stroke-dasharray:none;stroke-opacity:1"
       d="m 21.563226,42.668846 a 0.5,0.5 0 0 0 0.5,0.5 h 13 a 0.5,0.5 0 0 0 0.5,-0.5 v -0.5 h 0.3 a 0.5,0.5 0 0 0 0.5,-0.5 v -2.1 a 0.5,0.5 0 0 0 -0.5,-0.5 h -0.3 v -5.8 h 0.3 a 0.5,0.5 0 0 0 0.5,-0.5 v -2.1 a 0.5,0.5 0 0 0 -0.5,-0.5 h -0.3 v -0.5 a 0.5,0.5 0 0 0 -0.5,-0.5 h -13 a 0.5,0.5 0 0 0 -0.5,0.5 v 0.5 h -0.3 a 0.5,0.5 0 0 0 -0.5,0.5 v 2.1 a 0.5,0.5 0 0 0 0.5,0.5 h 0.3 v 5.8 h -0.3 a 0.5,0.5 0 0 0 -0.5,0.5 v 2.1 a 0.5,0.5 0 0 0 0.5,0.5 h 0.3 z"
       id="path1010" />
    <path
       style="font-size:12px;fill:none;fill-rule:evenodd;stroke:#000000;stroke-width:0.25;stroke-linecap:round;stroke-miterlimit:4;stroke-dasharray:none;stroke-opacity:1"
       d="m 2.5132257,42.668846 a 0.5,0.5 0 0 0 0.5,0.5 H 16.013226 a 0.5,0.5 0 0 0 0.5,-0.5 v -0.5 h 0.3 a 0.5,0.5 0 0 0 0.5,-0.5 v -2.1 a 0.5,0.5 0 0 0 -0.5,-0.5 h -0.3 v -5.8 h 0.3 a 0.5,0.5 0 0 0 0.5,-0.5 v -2.1 a 0.5,0.5 0 0 0 -0.5,-0.5 h -0.3 v -0.5 a 0.5,0.5 0 0 0 -0.5,-0.5 H 3.0132257 a 0.5,0.5 0 0 0 -0.5,0.5 v 0.5 h -0.3 a 0.5,0.5 0 0 0 -0.5,0.5 v 2.1 a 0.5,0.5 0 0 0 0.5,0.5 h 0.3 v 5.8 h -0.3 a 0.5,0.5 0 0 0 -0.5,0.5 v 2.1 a 0.5,0.5 0 0 0 0.5,0.5 h 0.3 z"
       id="path1008" />
    <path
       style="font-size:12px;fill:none;fill-rule:evenodd;stroke:#000000;stroke-width:0.25;stroke-linecap:round;stroke-miterlimit:4;stroke-dasharray:none;stroke-opacity:1"
       d="m 269.21323,23.618846 a 0.5,0.5 0 0 0 0.5,0.5 h 13 a 0.5,0.5 0 0 0 0.5,-0.5 v -0.5 h 0.3 a 0.5,0.5 0 0 0 0.5,-0.5 v -2.1 a 0.5,0.5 0 0 0 -0.5,-0.5 h -0.3 v -5.8 h 0.3 a 0.5,0.5 0 0 0 0.5,-0.5 v -2.1 a 0.5,0.5 0 0 0 -0.5,-0.5 h -0.3 v -0.5 a 0.5,0.5 0 0 0 -0.5,-0.5 h -13 a 0.5,0.5 0 0 0 -0.5,0.5 v 0.5 h -0.3 a 0.5,0.5 0 0 0 -0.5,0.5 v 2.1 a 0.5,0.5 0 0 0 0.5,0.5 h 0.3 v 5.8 h -0.3 a 0.5,0.5 0 0 0 -0.5,0.5 v 2.1 a 0.5,0.5 0 0 0 0.5,0.5 h 0.3 z"
       id="path1006" />
    <path
       style="font-size:12px;fill:none;fill-rule:evenodd;stroke:#000000;stroke-width:0.25;stroke-linecap:round;stroke-miterlimit:4;stroke-dasharray:none;stroke-opacity:1"
       d="m 250.16323,23.618846 a 0.5,0.5 0 0 0 0.5,0.5 h 13 a 0.5,0.5 0 0 0 0.5,-0.5 v -0.5 h 0.3 a 0.5,0.5 0 0 0 0.5,-0.5 v -2.1 a 0.5,0.5 0 0 0 -0.5,-0.5 h -0.3 v -5.8 h 0.3 a 0.5,0.5 0 0 0 0.5,-0.5 v -2.1 a 0.5,0.5 0 0 0 -0.5,-0.5 h -0.3 v -0.5 a 0.5,0.5 0 0 0 -0.5,-0.5 h -13 a 0.5,0.5 0 0 0 -0.5,0.5 v 0.5 h -0.3 a 0.5,0.5 0 0 0 -0.5,0.5 v 2.1 a 0.5,0.5 0 0 0 0.5,0.5 h 0.3 v 5.8 h -0.3 a 0.5,0.5 0 0 0 -0.5,0.5 v 2.1 a 0.5,0.5 0 0 0 0.5,0.5 h 0.3 z"
       id="path1004" />
    <path
       style="font-size:12px;fill:none;fill-rule:evenodd;stroke:#000000;stroke-width:0.25;stroke-linecap:round;stroke-miterlimit:4;stroke-dasharray:none;stroke-opacity:1"
       d="m 231.11323,23.618846 a 0.5,0.5 0 0 0 0.5,0.5 h 13 a 0.5,0.5 0 0 0 0.5,-0.5 v -0.5 h 0.3 a 0.5,0.5 0 0 0 0.5,-0.5 v -2.1 a 0.5,0.5 0 0 0 -0.5,-0.5 h -0.3 v -5.8 h 0.3 a 0.5,0.5 0 0 0 0.5,-0.5 v -2.1 a 0.5,0.5 0 0 0 -0.5,-0.5 h -0.3 v -0.5 a 0.5,0.5 0 0 0 -0.5,-0.5 h -13 a 0.5,0.5 0 0 0 -0.5,0.5 v 0.5 h -0.3 a 0.5,0.5 0 0 0 -0.5,0.5 v 2.1 a 0.5,0.5 0 0 0 0.5,0.5 h 0.3 v 5.8 h -0.3 a 0.5,0.5 0 0 0 -0.5,0.5 v 2.1 a 0.5,0.5 0 0 0 0.5,0.5 h 0.3 z"
       id="path1002" />
    <path
       style="font-size:12px;fill:none;fill-rule:evenodd;stroke:#000000;stroke-width:0.25;stroke-linecap:round;stroke-miterlimit:4;stroke-dasharray:none;stroke-opacity:1"
       d="m 212.06323,23.618846 a 0.5,0.5 0 0 0 0.5,0.5 h 13 a 0.5,0.5 0 0 0 0.5,-0.5 v -0.5 h 0.3 a 0.5,0.5 0 0 0 0.5,-0.5 v -2.1 a 0.5,0.5 0 0 0 -0.5,-0.5 h -0.3 v -5.8 h 0.3 a 0.5,0.5 0 0 0 0.5,-0.5 v -2.1 a 0.5,0.5 0 0 0 -0.5,-0.5 h -0.3 v -0.5 a 0.5,0.5 0 0 0 -0.5,-0.5 h -13 a 0.5,0.5 0 0 0 -0.5,0.5 v 0.5 h -0.3 a 0.5,0.5 0 0 0 -0.5,0.5 v 2.1 a 0.5,0.5 0 0 0 0.5,0.5 h 0.3 v 5.8 h -0.3 a 0.5,0.5 0 0 0 -0.5,0.5 v 2.1 a 0.5,0.5 0 0 0 0.5,0.5 h 0.3 z"
       id="path1000" />
    <path
       style="font-size:12px;fill:none;fill-rule:evenodd;stroke:#000000;stroke-width:0.25;stroke-linecap:round;stroke-miterlimit:4;stroke-dasharray:none;stroke-opacity:1"
       d="m 193.01323,23.618846 a 0.5,0.5 0 0 0 0.5,0.5 h 13 a 0.5,0.5 0 0 0 0.5,-0.5 v -0.5 h 0.3 a 0.5,0.5 0 0 0 0.5,-0.5 v -2.1 a 0.5,0.5 0 0 0 -0.5,-0.5 h -0.3 v -5.8 h 0.3 a 0.5,0.5 0 0 0 0.5,-0.5 v -2.1 a 0.5,0.5 0 0 0 -0.5,-0.5 h -0.3 v -0.5 a 0.5,0.5 0 0 0 -0.5,-0.5 h -13 a 0.5,0.5 0 0 0 -0.5,0.5 v 0.5 h -0.3 a 0.5,0.5 0 0 0 -0.5,0.5 v 2.1 a 0.5,0.5 0 0 0 0.5,0.5 h 0.3 v 5.8 h -0.3 a 0.5,0.5 0 0 0 -0.5,0.5 v 2.1 a 0.5,0.5 0 0 0 0.5,0.5 h 0.3 z"
       id="path998" />
    <path
       style="font-size:12px;fill:none;fill-rule:evenodd;stroke:#000000;stroke-width:0.25;stroke-linecap:round;stroke-miterlimit:4;stroke-dasharray:none;stroke-opacity:1"
       d="m 173.96323,23.618846 a 0.5,0.5 0 0 0 0.5,0.5 h 13 a 0.5,0.5 0 0 0 0.5,-0.5 v -0.5 h 0.3 a 0.5,0.5 0 0 0 0.5,-0.5 v -2.1 a 0.5,0.5 0 0 0 -0.5,-0.5 h -0.3 v -5.8 h 0.3 a 0.5,0.5 0 0 0 0.5,-0.5 v -2.1 a 0.5,0.5 0 0 0 -0.5,-0.5 h -0.3 v -0.5 a 0.5,0.5 0 0 0 -0.5,-0.5 h -13 a 0.5,0.5 0 0 0 -0.5,0.5 v 0.5 h -0.3 a 0.5,0.5 0 0 0 -0.5,0.5 v 2.1 a 0.5,0.5 0 0 0 0.5,0.5 h 0.3 v 5.8 h -0.3 a 0.5,0.5 0 0 0 -0.5,0.5 v 2.1 a 0.5,0.5 0 0 0 0.5,0.5 h 0.3 z"
       id="path996" />
    <path
       style="font-size:12px;fill:none;fill-rule:evenodd;stroke:#000000;stroke-width:0.25;stroke-linecap:round;stroke-miterlimit:4;stroke-dasharray:none;stroke-opacity:1"
       d="m 154.91323,23.618846 a 0.5,0.5 0 0 0 0.5,0.5 h 13 a 0.5,0.5 0 0 0 0.5,-0.5 v -0.5 h 0.3 a 0.5,0.5 0 0 0 0.5,-0.5 v -2.1 a 0.5,0.5 0 0 0 -0.5,-0.5 h -0.3 v -5.8 h 0.3 a 0.5,0.5 0 0 0 0.5,-0.5 v -2.1 a 0.5,0.5 0 0 0 -0.5,-0.5 h -0.3 v -0.5 a 0.5,0.5 0 0 0 -0.5,-0.5 h -13 a 0.5,0.5 0 0 0 -0.5,0.5 v 0.5 h -0.3 a 0.5,0.5 0 0 0 -0.5,0.5 v 2.1 a 0.5,0.5 0 0 0 0.5,0.5 h 0.3 v 5.8 h -0.3 a 0.5,0.5 0 0 0 -0.5,0.5 v 2.1 a 0.5,0.5 0 0 0 0.5,0.5 h 0.3 z"
       id="path994" />
    <path
       style="font-size:12px;fill:none;fill-rule:evenodd;stroke:#000000;stroke-width:0.25;stroke-linecap:round;stroke-miterlimit:4;stroke-dasharray:none;stroke-opacity:1"
       d="m 135.86323,23.618846 a 0.5,0.5 0 0 0 0.5,0.5 h 13 a 0.5,0.5 0 0 0 0.5,-0.5 v -0.5 h 0.3 a 0.5,0.5 0 0 0 0.5,-0.5 v -2.1 a 0.5,0.5 0 0 0 -0.5,-0.5 h -0.3 v -5.8 h 0.3 a 0.5,0.5 0 0 0 0.5,-0.5 v -2.1 a 0.5,0.5 0 0 0 -0.5,-0.5 h -0.3 v -0.5 a 0.5,0.5 0 0 0 -0.5,-0.5 h -13 a 0.5,0.5 0 0 0 -0.5,0.5 v 0.5 h -0.3 a 0.5,0.5 0 0 0 -0.5,0.5 v 2.1 a 0.5,0.5 0 0 0 0.5,0.5 h 0.3 v 5.8 h -0.3 a 0.5,0.5 0 0 0 -0.5,0.5 v 2.1 a 0.5,0.5 0 0 0 0.5,0.5 h 0.3 z"
       id="path992" />
    <path
       style="font-size:12px;fill:none;fill-rule:evenodd;stroke:#000000;stroke-width:0.25;stroke-linecap:round;stroke-miterlimit:4;stroke-dasharray:none;stroke-opacity:1"
       d="m 116.81323,23.618846 a 0.5,0.5 0 0 0 0.5,0.5 h 13 a 0.5,0.5 0 0 0 0.5,-0.5 v -0.5 h 0.3 a 0.5,0.5 0 0 0 0.5,-0.5 v -2.1 a 0.5,0.5 0 0 0 -0.5,-0.5 h -0.3 v -5.8 h 0.3 a 0.5,0.5 0 0 0 0.5,-0.5 v -2.1 a 0.5,0.5 0 0 0 -0.5,-0.5 h -0.3 v -0.5 a 0.5,0.5 0 0 0 -0.5,-0.5 h -13 a 0.5,0.5 0 0 0 -0.5,0.5 v 0.5 h -0.3 a 0.5,0.5 0 0 0 -0.5,0.5 v 2.1 a 0.5,0.5 0 0 0 0.5,0.5 h 0.3 v 5.8 h -0.3 a 0.5,0.5 0 0 0 -0.5,0.5 v 2.1 a 0.5,0.5 0 0 0 0.5,0.5 h 0.3 z"
       id="path990" />
    <path
       style="font-size:12px;fill:none;fill-rule:evenodd;stroke:#000000;stroke-width:0.25;stroke-linecap:round;stroke-miterlimit:4;stroke-dasharray:none;stroke-opacity:1"
       d="m 97.763226,23.618846 a 0.5,0.5 0 0 0 0.5,0.5 h 13.000004 a 0.5,0.5 0 0 0 0.5,-0.5 v -0.5 h 0.3 a 0.5,0.5 0 0 0 0.5,-0.5 v -2.1 a 0.5,0.5 0 0 0 -0.5,-0.5 h -0.3 v -5.8 h 0.3 a 0.5,0.5 0 0 0 0.5,-0.5 v -2.1 a 0.5,0.5 0 0 0 -0.5,-0.5 h -0.3 v -0.5 a 0.5,0.5 0 0 0 -0.5,-0.5 H 98.263226 a 0.5,0.5 0 0 0 -0.5,0.5 v 0.5 h -0.3 a 0.5,0.5 0 0 0 -0.5,0.5 v 2.1 a 0.5,0.5 0 0 0 0.5,0.5 h 0.3 v 5.8 h -0.3 a 0.5,0.5 0 0 0 -0.5,0.5 v 2.1 a 0.5,0.5 0 0 0 0.5,0.5 h 0.3 z"
       id="path988" />
    <path
       style="font-size:12px;fill:none;fill-rule:evenodd;stroke:#000000;stroke-width:0.25;stroke-linecap:round;stroke-miterlimit:4;stroke-dasharray:none;stroke-opacity:1"
       d="m 78.713226,23.618846 a 0.5,0.5 0 0 0 0.5,0.5 h 13 a 0.5,0.5 0 0 0 0.5,-0.5 v -0.5 h 0.3 a 0.5,0.5 0 0 0 0.5,-0.5 v -2.1 a 0.5,0.5 0 0 0 -0.5,-0.5 h -0.3 v -5.8 h 0.3 a 0.5,0.5 0 0 0 0.5,-0.5 v -2.1 a 0.5,0.5 0 0 0 -0.5,-0.5 h -0.3 v -0.5 a 0.5,0.5 0 0 0 -0.5,-0.5 h -13 a 0.5,0.5 0 0 0 -0.5,0.5 v 0.5 h -0.3 a 0.5,0.5 0 0 0 -0.5,0.5 v 2.1 a 0.5,0.5 0 0 0 0.5,0.5 h 0.3 v 5.8 h -0.3 a 0.5,0.5 0 0 0 -0.5,0.5 v 2.1 a 0.5,0.5 0 0 0 0.5,0.5 h 0.3 z"
       id="path986" />
    <path
       style="font-size:12px;fill:none;fill-rule:evenodd;stroke:#000000;stroke-width:0.25;stroke-linecap:round;stroke-miterlimit:4;stroke-dasharray:none;stroke-opacity:1"
       d="m 59.663226,23.618846 a 0.5,0.5 0 0 0 0.5,0.5 h 13 a 0.5,0.5 0 0 0 0.5,-0.5 v -0.5 h 0.3 a 0.5,0.5 0 0 0 0.5,-0.5 v -2.1 a 0.5,0.5 0 0 0 -0.5,-0.5 h -0.3 v -5.8 h 0.3 a 0.5,0.5 0 0 0 0.5,-0.5 v -2.1 a 0.5,0.5 0 0 0 -0.5,-0.5 h -0.3 v -0.5 a 0.5,0.5 0 0 0 -0.5,-0.5 h -13 a 0.5,0.5 0 0 0 -0.5,0.5 v 0.5 h -0.3 a 0.5,0.5 0 0 0 -0.5,0.5 v 2.1 a 0.5,0.5 0 0 0 0.5,0.5 h 0.3 v 5.8 h -0.3 a 0.5,0.5 0 0 0 -0.5,0.5 v 2.1 a 0.5,0.5 0 0 0 0.5,0.5 h 0.3 z"
       id="path984" />
    <path
       style="font-size:12px;fill:none;fill-rule:evenodd;stroke:#000000;stroke-width:0.25;stroke-linecap:round;stroke-miterlimit:4;stroke-dasharray:none;stroke-opacity:1"
       d="m 40.613226,23.618846 a 0.5,0.5 0 0 0 0.5,0.5 h 13 a 0.5,0.5 0 0 0 0.5,-0.5 v -0.5 h 0.3 a 0.5,0.5 0 0 0 0.5,-0.5 v -2.1 a 0.5,0.5 0 0 0 -0.5,-0.5 h -0.3 v -5.8 h 0.3 a 0.5,0.5 0 0 0 0.5,-0.5 v -2.1 a 0.5,0.5 0 0 0 -0.5,-0.5 h -0.3 v -0.5 a 0.5,0.5 0 0 0 -0.5,-0.5 h -13 a 0.5,0.5 0 0 0 -0.5,0.5 v 0.5 h -0.3 a 0.5,0.5 0 0 0 -0.5,0.5 v 2.1 a 0.5,0.5 0 0 0 0.5,0.5 h 0.3 v 5.8 h -0.3 a 0.5,0.5 0 0 0 -0.5,0.5 v 2.1 a 0.5,0.5 0 0 0 0.5,0.5 h 0.3 z"
       id="path982" />
    <path
       style="font-size:12px;fill:none;fill-rule:evenodd;stroke:#000000;stroke-width:0.25;stroke-linecap:round;stroke-miterlimit:4;stroke-dasharray:none;stroke-opacity:1"
       d="m 21.563226,23.618846 a 0.5,0.5 0 0 0 0.5,0.5 h 13 a 0.5,0.5 0 0 0 0.5,-0.5 v -0.5 h 0.3 a 0.5,0.5 0 0 0 0.5,-0.5 v -2.1 a 0.5,0.5 0 0 0 -0.5,-0.5 h -0.3 v -5.8 h 0.3 a 0.5,0.5 0 0 0 0.5,-0.5 v -2.1 a 0.5,0.5 0 0 0 -0.5,-0.5 h -0.3 v -0.5 a 0.5,0.5 0 0 0 -0.5,-0.5 h -13 a 0.5,0.5 0 0 0 -0.5,0.5 v 0.5 h -0.3 a 0.5,0.5 0 0 0 -0.5,0.5 v 2.1 a 0.5,0.5 0 0 0 0.5,0.5 h 0.3 v 5.8 h -0.3 a 0.5,0.5 0 0 0 -0.5,0.5 v 2.1 a 0.5,0.5 0 0 0 0.5,0.5 h 0.3 z"
       id="path980" />
    <path
       style="font-size:12px;fill:none;fill-rule:evenodd;stroke:#000000;stroke-width:0.25;stroke-linecap:round;stroke-miterlimit:4;stroke-dasharray:none;stroke-opacity:1"
       d="m 2.5132257,23.618846 a 0.5,0.5 0 0 0 0.5,0.5 H 16.013226 a 0.5,0.5 0 0 0 0.5,-0.5 v -0.5 h 0.3 a 0.5,0.5 0 0 0 0.5,-0.5 v -2.1 a 0.5,0.5 0 0 0 -0.5,-0.5 h -0.3 v -5.8 h 0.3 a 0.5,0.5 0 0 0 0.5,-0.5 v -2.1 a 0.5,0.5 0 0 0 -0.5,-0.5 h -0.3 v -0.5 a 0.5,0.5 0 0 0 -0.5,-0.5 H 3.0132257 a 0.5,0.5 0 0 0 -0.5,0.5 v 0.5 h -0.3 a 0.5,0.5 0 0 0 -0.5,0.5 v 2.1 a 0.5,0.5 0 0 0 0.5,0.5 h 0.3 v 5.8 h -0.3 a 0.5,0.5 0 0 0 -0.5,0.5 v 2.1 a 0.5,0.5 0 0 0 0.5,0.5 h 0.3 z"
       id="path2-3" />
    <path
       style="font-size:12px;fill:none;fill-rule:evenodd;stroke:#000000;stroke-width:0.25;stroke-linecap:round;stroke-miterlimit:4;stroke-dasharray:none;stroke-opacity:1"
       d="m 116.81323,80.768846 a 0.5,0.5 0 0 0 0.5,0.5 h 13 a 0.5,0.5 0 0 0 0.5,-0.5 v -0.5 h 0.3 a 0.5,0.5 0 0 0 0.5,-0.5 v -2.1 a 0.5,0.5 0 0 0 -0.5,-0.5 h -0.3 v -5.8 h 0.3 a 0.5,0.5 0 0 0 0.5,-0.5 v -2.1 a 0.5,0.5 0 0 0 -0.5,-0.5 h -0.3 v -0.5 a 0.5,0.5 0 0 0 -0.5,-0.5 h -13 a 0.5,0.5 0 0 0 -0.5,0.5 v 0.5 h -0.3 a 0.5,0.5 0 0 0 -0.5,0.5 v 2.1 a 0.5,0.5 0 0 0 0.5,0.5 h 0.3 v 5.8 h -0.3 a 0.5,0.5 0 0 0 -0.5,0.5 v 2.1 a 0.5,0.5 0 0 0 0.5,0.5 h 0.3 z"
       id="path2201" />
  </g>
  <g
     id="g2571"
     transform="translate(49.282181,-36.23183)"
     style="stroke:#000000;stroke-opacity:1">
    <path
       style="font-size:12px;fill:none;fill-rule:evenodd;stroke:#000000;stroke-width:0.25;stroke-linecap:round;stroke-miterlimit:4;stroke-dasharray:none;stroke-opacity:1"
       d="m 68.538541,172.65833 a 0.5,0.5 0 0 0 0.5,0.5 h 13 a 0.5,0.5 0 0 0 0.5,-0.5 v -0.5 h 0.3 a 0.5,0.5 0 0 0 0.5,-0.5 v -2.1 a 0.5,0.5 0 0 0 -0.5,-0.5 h -0.3 v -5.8 h 0.3 a 0.5,0.5 0 0 0 0.5,-0.5 v -2.1 a 0.5,0.5 0 0 0 -0.5,-0.5 h -0.3 v -0.5 a 0.5,0.5 0 0 0 -0.5,-0.5 h -13 a 0.5,0.5 0 0 0 -0.5,0.5 v 0.5 h -0.3 a 0.5,0.5 0 0 0 -0.5,0.5 v 2.1 a 0.5,0.5 0 0 0 0.5,0.5 h 0.3 v 5.8 h -0.3 a 0.5,0.5 0 0 0 -0.5,0.5 v 2.1 a 0.5,0.5 0 0 0 0.5,0.5 h 0.3 z"
       id="path1096" />
    <path
       style="font-size:12px;fill:none;fill-rule:evenodd;stroke:#000000;stroke-width:0.25;stroke-linecap:round;stroke-miterlimit:4;stroke-dasharray:none;stroke-opacity:1"
       d="m 44.726041,172.65833 a 0.5,0.5 0 0 0 0.5,0.5 h 13 a 0.5,0.5 0 0 0 0.5,-0.5 v -0.5 h 0.3 a 0.5,0.5 0 0 0 0.5,-0.5 v -2.1 a 0.5,0.5 0 0 0 -0.5,-0.5 h -0.3 v -5.8 h 0.3 a 0.5,0.5 0 0 0 0.5,-0.5 v -2.1 a 0.5,0.5 0 0 0 -0.5,-0.5 h -0.3 v -0.5 a 0.5,0.5 0 0 0 -0.5,-0.5 h -13 a 0.5,0.5 0 0 0 -0.5,0.5 v 0.5 h -0.3 a 0.5,0.5 0 0 0 -0.5,0.5 v 2.1 a 0.5,0.5 0 0 0 0.5,0.5 h 0.3 v 5.8 h -0.3 a 0.5,0.5 0 0 0 -0.5,0.5 v 2.1 a 0.5,0.5 0 0 0 0.5,0.5 h 0.3 z"
       id="path1094" />
    <path
       style="font-size:12px;fill:none;fill-rule:evenodd;stroke:#000000;stroke-width:0.25;stroke-linecap:round;stroke-miterlimit:4;stroke-dasharray:none;stroke-opacity:1"
       d="m 20.913541,172.65833 a 0.5,0.5 0 0 0 0.5,0.5 h 13 a 0.5,0.5 0 0 0 0.5,-0.5 v -0.5 h 0.3 a 0.5,0.5 0 0 0 0.5,-0.5 v -2.1 a 0.5,0.5 0 0 0 -0.5,-0.5 h -0.3 v -5.8 h 0.3 a 0.5,0.5 0 0 0 0.5,-0.5 v -2.1 a 0.5,0.5 0 0 0 -0.5,-0.5 h -0.3 v -0.5 a 0.5,0.5 0 0 0 -0.5,-0.5 h -13 a 0.5,0.5 0 0 0 -0.5,0.5 v 0.5 h -0.3 a 0.5,0.5 0 0 0 -0.5,0.5 v 2.1 a 0.5,0.5 0 0 0 0.5,0.5 h 0.3 v 5.8 h -0.3 a 0.5,0.5 0 0 0 -0.5,0.5 v 2.1 a 0.5,0.5 0 0 0 0.5,0.5 h 0.3 z"
       id="path1092" />
  </g>
  <g
     id="g2579"
     transform="translate(211.20718,-36.23183)"
     style="stroke:#000000;stroke-opacity:1">
    <path
       style="font-size:12px;fill:none;fill-rule:evenodd;stroke:#000000;stroke-width:0.25;stroke-linecap:round;stroke-miterlimit:4;stroke-dasharray:none;stroke-opacity:1"
       d="m 68.538541,172.65833 a 0.5,0.5 0 0 0 0.5,0.5 h 13 a 0.5,0.5 0 0 0 0.5,-0.5 v -0.5 h 0.3 a 0.5,0.5 0 0 0 0.5,-0.5 v -2.1 a 0.5,0.5 0 0 0 -0.5,-0.5 h -0.3 v -5.8 h 0.3 a 0.5,0.5 0 0 0 0.5,-0.5 v -2.1 a 0.5,0.5 0 0 0 -0.5,-0.5 h -0.3 v -0.5 a 0.5,0.5 0 0 0 -0.5,-0.5 h -13 a 0.5,0.5 0 0 0 -0.5,0.5 v 0.5 h -0.3 a 0.5,0.5 0 0 0 -0.5,0.5 v 2.1 a 0.5,0.5 0 0 0 0.5,0.5 h 0.3 v 5.8 h -0.3 a 0.5,0.5 0 0 0 -0.5,0.5 v 2.1 a 0.5,0.5 0 0 0 0.5,0.5 h 0.3 z"
       id="path2573" />
    <path
       style="font-size:12px;fill:none;fill-rule:evenodd;stroke:#000000;stroke-width:0.25;stroke-linecap:round;stroke-miterlimit:4;stroke-dasharray:none;stroke-opacity:1"
       d="m 44.726041,172.65833 a 0.5,0.5 0 0 0 0.5,0.5 h 13 a 0.5,0.5 0 0 0 0.5,-0.5 v -0.5 h 0.3 a 0.5,0.5 0 0 0 0.5,-0.5 v -2.1 a 0.5,0.5 0 0 0 -0.5,-0.5 h -0.3 v -5.8 h 0.3 a 0.5,0.5 0 0 0 0.5,-0.5 v -2.1 a 0.5,0.5 0 0 0 -0.5,-0.5 h -0.3 v -0.5 a 0.5,0.5 0 0 0 -0.5,-0.5 h -13 a 0.5,0.5 0 0 0 -0.5,0.5 v 0.5 h -0.3 a 0.5,0.5 0 0 0 -0.5,0.5 v 2.1 a 0.5,0.5 0 0 0 0.5,0.5 h 0.3 v 5.8 h -0.3 a 0.5,0.5 0 0 0 -0.5,0.5 v 2.1 a 0.5,0.5 0 0 0 0.5,0.5 h 0.3 z"
       id="path2575" />
    <path
       style="font-size:12px;fill:none;fill-rule:evenodd;stroke:#000000;stroke-width:0.25;stroke-linecap:round;stroke-miterlimit:4;stroke-dasharray:none;stroke-opacity:1"
       d="m 20.913541,172.65833 a 0.5,0.5 0 0 0 0.5,0.5 h 13 a 0.5,0.5 0 0 0 0.5,-0.5 v -0.5 h 0.3 a 0.5,0.5 0 0 0 0.5,-0.5 v -2.1 a 0.5,0.5 0 0 0 -0.5,-0.5 h -0.3 v -5.8 h 0.3 a 0.5,0.5 0 0 0 0.5,-0.5 v -2.1 a 0.5,0.5 0 0 0 -0.5,-0.5 h -0.3 v -0.5 a 0.5,0.5 0 0 0 -0.5,-0.5 h -13 a 0.5,0.5 0 0 0 -0.5,0.5 v 0.5 h -0.3 a 0.5,0.5 0 0 0 -0.5,0.5 v 2.1 a 0.5,0.5 0 0 0 0.5,0.5 h 0.3 v 5.8 h -0.3 a 0.5,0.5 0 0 0 -0.5,0.5 v 2.1 a 0.5,0.5 0 0 0 0.5,0.5 h 0.3 z"
       id="path2577" />
  </g>
  <path
     style="font-size:12px;fill:none;fill-rule:evenodd;stroke:#000000;stroke-width:0.25;stroke-linecap:round;stroke-miterlimit:4;stroke-dasharray:none;stroke-opacity:1"
     d="m 174.97072,136.4265 a 0.5,0.5 0 0 0 0.5,0.5 h 13 a 0.5,0.5 0 0 0 0.5,-0.5 v -0.5 h 0.3 a 0.5,0.5 0 0 0 0.5,-0.5 v -2.1 a 0.5,0.5 0 0 0 -0.5,-0.5 h -0.3 v -5.8 h 0.3 a 0.5,0.5 0 0 0 0.5,-0.5 v -2.1 a 0.5,0.5 0 0 0 -0.5,-0.5 h -0.3 v -0.5 a 0.5,0.5 0 0 0 -0.5,-0.5 h -13 a 0.5,0.5 0 0 0 -0.5,0.5 v 0.5 h -0.3 a 0.5,0.5 0 0 0 -0.5,0.5 v 2.1 a 0.5,0.5 0 0 0 0.5,0.5 h 0.3 v 5.8 h -0.3 a 0.5,0.5 0 0 0 -0.5,0.5 v 2.1 a 0.5,0.5 0 0 0 0.5,0.5 h 0.3 z"
     id="path2201-6" />
  <rect
     style="opacity:0.8;fill:none;stroke:#000000;stroke-width:0.240594;stroke-opacity:1"
     id="rect4911"
     width="32.680035"
     height="17.797581"
     x="137.06108"
     y="121.3203" />
  <rect
     style="opacity:0.8;fill:none;stroke:#000000;stroke-width:0.240594;stroke-opacity:1"
     id="rect7746"
     width="32.680035"
     height="17.797581"
     x="194.22029"
     y="121.3203" />
</svg>
