<?xml version="1.0" encoding="UTF-8" standalone="no"?>
<svg
   width="285.75mm"
   height="110.425mm"
   viewBox="0 0 285.75 110.425"
   version="1.1"
   id="svg180"
   sodipodi:docname="OC62_Metal_Pink_exp1_flex_mod.svg"
   inkscape:version="1.1.2 (0a00cf5339, 2022-02-04)"
   xmlns:inkscape="http://www.inkscape.org/namespaces/inkscape"
   xmlns:sodipodi="http://sodipodi.sourceforge.net/DTD/sodipodi-0.dtd"
   xmlns="http://www.w3.org/2000/svg"
   xmlns:svg="http://www.w3.org/2000/svg">
  <defs
     id="defs184" />
  <sodipodi:namedview
     id="namedview182"
     pagecolor="#ffffff"
     bordercolor="#666666"
     borderopacity="1.0"
     inkscape:pageshadow="2"
     inkscape:pageopacity="0.0"
     inkscape:pagecheckerboard="0"
     inkscape:document-units="mm"
     showgrid="false"
     inkscape:zoom="9.2117511"
     inkscape:cx="555.64897"
     inkscape:cy="22.959804"
     inkscape:window-width="3770"
     inkscape:window-height="2096"
     inkscape:window-x="1990"
     inkscape:window-y="27"
     inkscape:window-maximized="1"
     inkscape:current-layer="svg180" />
  <path
     style="fill:none;stroke:#000000;stroke-width:0.25;stroke-miterlimit:4;stroke-dasharray:none;stroke-opacity:1"
     d="m 261.4625,86.8125 v 13 a 0.5,0.5 0 0 1 -0.5,0.5 h -0.5 a 0.5,0.5 0 0 1 -0.5,-0.5 v -13 a 0.5,0.5 0 0 1 0.5,-0.5 h 0.5 a 0.5,0.5 0 0 1 0.5,0.5 z"
     id="path18" />
  <path
     style="fill:none;stroke:#000000;stroke-width:0.25;stroke-miterlimit:4;stroke-dasharray:none;stroke-opacity:1"
     d="m 234.3375,86.3125 h 0.5 a 0.5,0.5 0 0 1 0.5,0.5 v 13 a 0.5,0.5 0 0 1 -0.5,0.5 h -0.5 a 0.5,0.5 0 0 1 -0.5,-0.5 v -13 a 0.5,0.5 0 0 1 0.5,-0.5 z"
     id="path46" />
  <path
     style="fill:none;stroke:#000000;stroke-width:0.25;stroke-miterlimit:4;stroke-dasharray:none;stroke-opacity:1"
     d="m 213.8375,86.8125 a 0.5,0.5 0 0 0 -0.5,-0.5 h -0.5 a 0.5,0.5 0 0 0 -0.5,0.5 v 13 a 0.5,0.5 0 0 0 0.5,0.5 h 0.5 a 0.5,0.5 0 0 0 0.5,-0.5 z"
     id="path50" />
  <path
     style="fill:none;stroke:#000000;stroke-width:0.25;stroke-miterlimit:4;stroke-dasharray:none;stroke-opacity:1"
     d="m 71.9125,99.8125 a 0.5,0.5 0 0 0 0.5,0.5 h 0.5 a 0.5,0.5 0 0 0 0.5,-0.5 v -13 a 0.5,0.5 0 0 0 -0.5,-0.5 h -0.5 a 0.5,0.5 0 0 0 -0.5,0.5 z"
     id="path54" />
  <path
     style="fill:none;stroke:#000000;stroke-width:0.25;stroke-miterlimit:4;stroke-dasharray:none;stroke-opacity:1"
     d="m 24.7875,86.3125 h 0.5 a 0.5,0.5 0 0 1 0.5,0.5 v 13 a 0.5,0.5 0 0 1 -0.5,0.5 h -0.5 a 0.5,0.5 0 0 1 -0.5,-0.5 v -13 a 0.5,0.5 0 0 1 0.5,-0.5 z"
     id="path148" />
  <path
     style="fill:none;stroke:#000000;stroke-width:0.25;stroke-miterlimit:4;stroke-dasharray:none;stroke-opacity:1"
     d="m 50.9125,86.3125 h 0.5 a 0.5,0.5 0 0 1 0.5,0.5 v 13 a 0.5,0.5 0 0 1 -0.5,0.5 h -0.5 a 0.5,0.5 0 0 1 -0.5,-0.5 v -13 a 0.5,0.5 0 0 1 0.5,-0.5 z"
     id="path160" />
  <path
     style="fill:none;stroke:#000000;stroke-width:0.249537;stroke-miterlimit:4;stroke-dasharray:none;stroke-opacity:1"
     d="m 39.416777,0.102156 c -0.275631,0 -0.499075,0.22344344 -0.499075,0.49907488 V 3.4253559 c 0,0.2756315 0.223444,0.4990749 0.499075,0.4990749 h 30.418614 c 0.831791,0 0.831791,1.2476872 0,1.2476872 H 6.7523255 c -0.8317911,0 -0.8317911,-1.2476872 0,-1.2476872 H 37.17094 c 0.275631,0 0.499075,-0.2234434 0.499075,-0.4990749 V 0.60123088 C 37.670015,0.32559944 37.446571,0.102156 37.17094,0.102156 H 6.1035282 c -0.8820206,0 -1.5970396,0.71501899 -1.5970396,1.5970396 V 5.080428 c 0,0.8820206 0.715019,1.5970396 1.5970396,1.5970396 H 11 c 0.665433,0 0.665433,0.9981498 0,0.9981498 H 1.8613917 c -0.88202065,0 -1.59703965,0.7150189 -1.59703965,1.5970396 v 91.879683 c 0,0.88203 0.715019,1.59704 1.59703965,1.59704 H 10 c 0.665433,0 0.665433,0.99815 0,0.99815 H 6.1035282 c -0.8820206,0 -1.5970396,0.71502 -1.5970396,1.59704 v 3.38123 c 0,0.88203 0.715019,1.59704 1.5970396,1.59704 H 37.17094 c 0.275631,0 0.499075,-0.22344 0.499075,-0.49907 v -2.82413 c 0,-0.27562 -0.223444,-0.49907 -0.499075,-0.49907 H 6.7523255 c -0.8317911,0 -0.8317911,-1.24769 0,-1.24769 H 69.835391 c 0.831791,0 0.831791,1.24769 0,1.24769 H 39.416777 c -0.275631,0 -0.499075,0.22345 -0.499075,0.49907 v 2.82413 c 0,0.27563 0.223444,0.49907 0.499075,0.49907 h 31.067411 c 0.882021,0 1.59704,-0.71501 1.59704,-1.59704 v -3.38123 c 0,-0.88202 -0.715019,-1.59704 -1.59704,-1.59704 H 66 c -0.665432,0 -0.665432,-0.99815 0,-0.99815 h 14.925623 l 17.146646,4.1e-4 V 85.688129 h 89.520041 v 17.061661 c 5.16245,0 0,0 1.74473,-4.1e-4 h 7.74366 7.74368 L 220,102.74888 c 0.66544,-2e-5 0.66544,0.99865 0,0.99865 h -4.73419 c -0.88202,0 -1.59704,0.71502 -1.59704,1.59704 v 3.38123 c 0,0.88203 0.71502,1.59704 1.59704,1.59704 h 31.06741 c 0.27563,0 0.49908,-0.22344 0.49908,-0.49907 v -2.82413 c 0,-0.27562 -0.22345,-0.49907 -0.49908,-0.49907 h -30.41861 c -0.83179,0 -0.83179,-1.24769 0,-1.24769 h 63.08306 c 0.83179,0 0.83179,1.24769 0,1.24769 h -30.41861 c -0.27563,0 -0.49907,0.22345 -0.49907,0.49907 v 2.82413 c 0,0.27563 0.22344,0.49907 0.49907,0.49907 h 31.06741 c 0.88203,0 1.59704,-0.71501 1.59704,-1.59704 v -3.38123 c 0,-0.88202 -0.71501,-1.59714 -1.59704,-1.59704 L 275,103.74807 c -0.66544,8e-5 -0.66544,-0.99811 0,-0.99815 l 8.88861,-5.4e-4 c 0.88202,-5e-5 1.59704,-0.71501 1.59704,-1.59704 V 9.272657 c 0,-0.8820207 -0.71502,-1.5970396 -1.59704,-1.5970396 H 274 c -0.66544,0 -0.66544,-0.9981498 0,-0.9981498 h 5.64647 c 0.88203,0 1.59704,-0.715019 1.59704,-1.5970396 V 1.6991956 c 0,-0.88202061 -0.71501,-1.5970396 -1.59704,-1.5970396 h -31.06741 c -0.27563,0 -0.49907,0.22344344 -0.49907,0.49907488 V 3.4253559 c 0,0.2756315 0.22344,0.4990749 0.49907,0.4990749 h 30.41861 c 0.83179,0 0.83179,1.2476872 0,1.2476872 h -63.08306 c -0.83179,0 -0.83179,-1.2476872 0,-1.2476872 h 30.41861 c 0.27563,0 0.49908,-0.2234434 0.49908,-0.4990749 V 0.60123088 c 0,-0.27563144 -0.22345,-0.49907488 -0.49908,-0.49907488 h -31.06741 c -0.88202,0 -1.59704,0.71501899 -1.59704,1.5970396 V 5.080428 c 0,0.8820206 0.71502,1.5970396 1.59704,1.5970396 H 221 c 0.66543,0 0.66543,0.9981498 0,0.9981498 h -51 c -0.66543,0 -0.66543,-0.9981498 0,-0.9981498 h 5.06533 c 0.88203,0 1.59704,-0.715019 1.59704,-1.5970396 V 1.6991956 c 0,-0.88202061 -0.71501,-1.5970396 -1.59704,-1.5970396 h -31.06741 c -0.27563,0 -0.49908,0.22344344 -0.49908,0.49907488 V 3.4253559 c 0,0.2756315 0.22345,0.4990749 0.49908,0.4990749 h 30.41861 c 0.83179,0 0.83179,1.2476872 0,1.2476872 h -63.08306 c -0.83179,0 -0.83179,-1.2476872 0,-1.2476872 h 30.41861 c 0.27563,0 0.49908,-0.2234434 0.49908,-0.4990749 V 0.60123088 c 0,-0.27563144 -0.22345,-0.49907488 -0.49908,-0.49907488 h -31.06741 c -0.88203,0 -1.59704,0.71501899 -1.59704,1.5970396 V 5.080428 c 0,0.8820206 0.71501,1.5970396 1.59704,1.5970396 H 116 c 0.66543,0 0.66543,0.9981438 0,0.9981498 l -51,4.575e-4 c -0.665432,6e-6 -0.665432,-0.9980943 0,-0.9981498 l 5.484188,-4.575e-4 c 0.882021,-7.36e-5 1.59704,-0.715019 1.59704,-1.5970396 V 1.6991956 c 0,-0.88202061 -0.715019,-1.5970396 -1.59704,-1.5970396 z"
     id="path176"
     sodipodi:nodetypes="ssssssssssssssssssssssssssssssssssssssssssssssccccccccsssssssssssssssssssssssssssssssssssssssssssssssssssssssssssssssssssssssssssssssssss" />
  <path
     style="font-size:12px;fill:none;fill-rule:evenodd;stroke:#000000;stroke-width:0.25;stroke-linecap:round;stroke-opacity:1;stroke-miterlimit:4;stroke-dasharray:none"
     d="m 240.63823,99.818846 a 0.5,0.5 0 0 0 0.5,0.500004 h 13 a 0.5,0.5 0 0 0 0.5,-0.500004 v -0.5 h 0.3 a 0.5,0.5 0 0 0 0.5,-0.5 v -2.1 a 0.5,0.5 0 0 0 -0.5,-0.5 h -0.3 v -5.8 h 0.3 a 0.5,0.5 0 0 0 0.5,-0.5 v -2.1 a 0.5,0.5 0 0 0 -0.5,-0.5 h -0.3 v -0.5 a 0.5,0.5 0 0 0 -0.5,-0.5 h -13 a 0.5,0.5 0 0 0 -0.5,0.5 v 0.5 h -0.3 a 0.5,0.5 0 0 0 -0.5,0.5 v 2.1 a 0.5,0.5 0 0 0 0.5,0.5 h 0.3 v 5.8 h -0.3 a 0.5,0.5 0 0 0 -0.5,0.5 v 2.1 a 0.5,0.5 0 0 0 0.5,0.5 h 0.3 z"
     id="path1108" />
  <path
     style="font-size:12px;fill:none;fill-rule:evenodd;stroke:#000000;stroke-width:0.25;stroke-linecap:round;stroke-opacity:1;stroke-miterlimit:4;stroke-dasharray:none"
     d="m 216.82573,99.818846 a 0.5,0.5 0 0 0 0.5,0.500004 h 13 a 0.5,0.5 0 0 0 0.5,-0.500004 v -0.5 h 0.3 a 0.5,0.5 0 0 0 0.5,-0.5 v -2.1 a 0.5,0.5 0 0 0 -0.5,-0.5 h -0.3 v -5.8 h 0.3 a 0.5,0.5 0 0 0 0.5,-0.5 v -2.1 a 0.5,0.5 0 0 0 -0.5,-0.5 h -0.3 v -0.5 a 0.5,0.5 0 0 0 -0.5,-0.5 h -13 a 0.5,0.5 0 0 0 -0.5,0.5 v 0.5 h -0.3 a 0.5,0.5 0 0 0 -0.5,0.5 v 2.1 a 0.5,0.5 0 0 0 0.5,0.5 h 0.3 v 5.8 h -0.3 a 0.5,0.5 0 0 0 -0.5,0.5 v 2.1 a 0.5,0.5 0 0 0 0.5,0.5 h 0.3 z"
     id="path1106" />
  <path
     style="font-size:12px;fill:none;fill-rule:evenodd;stroke:#000000;stroke-width:0.25;stroke-linecap:round;stroke-opacity:1;stroke-miterlimit:4;stroke-dasharray:none"
     d="m 193.01323,99.818846 a 0.5,0.5 0 0 0 0.5,0.500004 h 13 a 0.5,0.5 0 0 0 0.5,-0.500004 v -0.5 h 0.3 a 0.5,0.5 0 0 0 0.5,-0.5 v -2.1 a 0.5,0.5 0 0 0 -0.5,-0.5 h -0.3 v -5.8 h 0.3 a 0.5,0.5 0 0 0 0.5,-0.5 v -2.1 a 0.5,0.5 0 0 0 -0.5,-0.5 h -0.3 v -0.5 a 0.5,0.5 0 0 0 -0.5,-0.5 h -13 a 0.5,0.5 0 0 0 -0.5,0.5 v 0.5 h -0.3 a 0.5,0.5 0 0 0 -0.5,0.5 v 2.1 a 0.5,0.5 0 0 0 0.5,0.5 h 0.3 v 5.8 h -0.3 a 0.5,0.5 0 0 0 -0.5,0.5 v 2.1 a 0.5,0.5 0 0 0 0.5,0.5 h 0.3 z"
     id="path1104" />
  <path
     style="font-size:12px;fill:none;fill-rule:evenodd;stroke:#000000;stroke-width:0.25;stroke-linecap:round;stroke-opacity:1;stroke-miterlimit:4;stroke-dasharray:none"
     d="m 78.713226,99.818846 a 0.5,0.5 0 0 0 0.5,0.500004 h 13 a 0.5,0.5 0 0 0 0.5,-0.500004 v -0.5 h 0.3 a 0.5,0.5 0 0 0 0.5,-0.5 v -2.1 a 0.5,0.5 0 0 0 -0.5,-0.5 h -0.3 v -5.8 h 0.3 a 0.5,0.5 0 0 0 0.5,-0.5 v -2.1 a 0.5,0.5 0 0 0 -0.5,-0.5 h -0.3 v -0.5 a 0.5,0.5 0 0 0 -0.5,-0.5 h -13 a 0.5,0.5 0 0 0 -0.5,0.5 v 0.5 h -0.3 a 0.5,0.5 0 0 0 -0.5,0.5 v 2.1 a 0.5,0.5 0 0 0 0.5,0.5 h 0.3 v 5.8 h -0.3 a 0.5,0.5 0 0 0 -0.5,0.5 v 2.1 a 0.5,0.5 0 0 0 0.5,0.5 h 0.3 z"
     id="path1096" />
  <path
     style="font-size:12px;fill:none;fill-rule:evenodd;stroke:#000000;stroke-width:0.25;stroke-linecap:round;stroke-opacity:1;stroke-miterlimit:4;stroke-dasharray:none"
     d="m 54.900726,99.818846 a 0.5,0.5 0 0 0 0.5,0.500004 h 13 a 0.5,0.5 0 0 0 0.5,-0.500004 v -0.5 h 0.3 a 0.5,0.5 0 0 0 0.5,-0.5 v -2.1 a 0.5,0.5 0 0 0 -0.5,-0.5 h -0.3 v -5.8 h 0.3 a 0.5,0.5 0 0 0 0.5,-0.5 v -2.1 a 0.5,0.5 0 0 0 -0.5,-0.5 h -0.3 v -0.5 a 0.5,0.5 0 0 0 -0.5,-0.5 h -13 a 0.5,0.5 0 0 0 -0.5,0.5 v 0.5 h -0.3 a 0.5,0.5 0 0 0 -0.5,0.5 v 2.1 a 0.5,0.5 0 0 0 0.5,0.5 h 0.3 v 5.8 h -0.3 a 0.5,0.5 0 0 0 -0.5,0.5 v 2.1 a 0.5,0.5 0 0 0 0.5,0.5 h 0.3 z"
     id="path1094" />
  <path
     style="font-size:12px;fill:none;fill-rule:evenodd;stroke:#000000;stroke-width:0.25;stroke-linecap:round;stroke-opacity:1;stroke-miterlimit:4;stroke-dasharray:none"
     d="m 31.088226,99.818846 a 0.5,0.5 0 0 0 0.5,0.500004 h 13 a 0.5,0.5 0 0 0 0.5,-0.500004 v -0.5 h 0.3 a 0.5,0.5 0 0 0 0.5,-0.5 v -2.1 a 0.5,0.5 0 0 0 -0.5,-0.5 h -0.3 v -5.8 h 0.3 a 0.5,0.5 0 0 0 0.5,-0.5 v -2.1 a 0.5,0.5 0 0 0 -0.5,-0.5 h -0.3 v -0.5 a 0.5,0.5 0 0 0 -0.5,-0.5 h -13 a 0.5,0.5 0 0 0 -0.5,0.5 v 0.5 h -0.3 a 0.5,0.5 0 0 0 -0.5,0.5 v 2.1 a 0.5,0.5 0 0 0 0.5,0.5 h 0.3 v 5.8 h -0.3 a 0.5,0.5 0 0 0 -0.5,0.5 v 2.1 a 0.5,0.5 0 0 0 0.5,0.5 h 0.3 z"
     id="path1092" />
  <path
     style="font-size:12px;fill:none;fill-rule:evenodd;stroke:#000000;stroke-width:0.25;stroke-linecap:round;stroke-opacity:1;stroke-miterlimit:4;stroke-dasharray:none"
     d="m 269.21323,80.768846 a 0.5,0.5 0 0 0 0.5,0.5 h 13 a 0.5,0.5 0 0 0 0.5,-0.5 v -0.5 h 0.3 a 0.5,0.5 0 0 0 0.5,-0.5 v -2.1 a 0.5,0.5 0 0 0 -0.5,-0.5 h -0.3 v -5.8 h 0.3 a 0.5,0.5 0 0 0 0.5,-0.5 v -2.1 a 0.5,0.5 0 0 0 -0.5,-0.5 h -0.3 v -0.5 a 0.5,0.5 0 0 0 -0.5,-0.5 h -13 a 0.5,0.5 0 0 0 -0.5,0.5 v 0.5 h -0.3 a 0.5,0.5 0 0 0 -0.5,0.5 v 2.1 a 0.5,0.5 0 0 0 0.5,0.5 h 0.3 v 5.8 h -0.3 a 0.5,0.5 0 0 0 -0.5,0.5 v 2.1 a 0.5,0.5 0 0 0 0.5,0.5 h 0.3 z"
     id="path1090" />
  <path
     style="font-size:12px;fill:none;fill-rule:evenodd;stroke:#000000;stroke-width:0.25;stroke-linecap:round;stroke-opacity:1;stroke-miterlimit:4;stroke-dasharray:none"
     d="m 250.16323,80.768846 a 0.5,0.5 0 0 0 0.5,0.5 h 13 a 0.5,0.5 0 0 0 0.5,-0.5 v -0.5 h 0.3 a 0.5,0.5 0 0 0 0.5,-0.5 v -2.1 a 0.5,0.5 0 0 0 -0.5,-0.5 h -0.3 v -5.8 h 0.3 a 0.5,0.5 0 0 0 0.5,-0.5 v -2.1 a 0.5,0.5 0 0 0 -0.5,-0.5 h -0.3 v -0.5 a 0.5,0.5 0 0 0 -0.5,-0.5 h -13 a 0.5,0.5 0 0 0 -0.5,0.5 v 0.5 h -0.3 a 0.5,0.5 0 0 0 -0.5,0.5 v 2.1 a 0.5,0.5 0 0 0 0.5,0.5 h 0.3 v 5.8 h -0.3 a 0.5,0.5 0 0 0 -0.5,0.5 v 2.1 a 0.5,0.5 0 0 0 0.5,0.5 h 0.3 z"
     id="path1088" />
  <path
     style="font-size:12px;fill:none;fill-rule:evenodd;stroke:#000000;stroke-width:0.25;stroke-linecap:round;stroke-opacity:1;stroke-miterlimit:4;stroke-dasharray:none"
     d="m 231.11323,80.768846 a 0.5,0.5 0 0 0 0.5,0.5 h 13 a 0.5,0.5 0 0 0 0.5,-0.5 v -0.5 h 0.3 a 0.5,0.5 0 0 0 0.5,-0.5 v -2.1 a 0.5,0.5 0 0 0 -0.5,-0.5 h -0.3 v -5.8 h 0.3 a 0.5,0.5 0 0 0 0.5,-0.5 v -2.1 a 0.5,0.5 0 0 0 -0.5,-0.5 h -0.3 v -0.5 a 0.5,0.5 0 0 0 -0.5,-0.5 h -13 a 0.5,0.5 0 0 0 -0.5,0.5 v 0.5 h -0.3 a 0.5,0.5 0 0 0 -0.5,0.5 v 2.1 a 0.5,0.5 0 0 0 0.5,0.5 h 0.3 v 5.8 h -0.3 a 0.5,0.5 0 0 0 -0.5,0.5 v 2.1 a 0.5,0.5 0 0 0 0.5,0.5 h 0.3 z"
     id="path1086" />
  <path
     style="font-size:12px;fill:none;fill-rule:evenodd;stroke:#000000;stroke-width:0.25;stroke-linecap:round;stroke-opacity:1;stroke-miterlimit:4;stroke-dasharray:none"
     d="m 212.06323,80.768846 a 0.5,0.5 0 0 0 0.5,0.5 h 13 a 0.5,0.5 0 0 0 0.5,-0.5 v -0.5 h 0.3 a 0.5,0.5 0 0 0 0.5,-0.5 v -2.1 a 0.5,0.5 0 0 0 -0.5,-0.5 h -0.3 v -5.8 h 0.3 a 0.5,0.5 0 0 0 0.5,-0.5 v -2.1 a 0.5,0.5 0 0 0 -0.5,-0.5 h -0.3 v -0.5 a 0.5,0.5 0 0 0 -0.5,-0.5 h -13 a 0.5,0.5 0 0 0 -0.5,0.5 v 0.5 h -0.3 a 0.5,0.5 0 0 0 -0.5,0.5 v 2.1 a 0.5,0.5 0 0 0 0.5,0.5 h 0.3 v 5.8 h -0.3 a 0.5,0.5 0 0 0 -0.5,0.5 v 2.1 a 0.5,0.5 0 0 0 0.5,0.5 h 0.3 z"
     id="path1084" />
  <path
     style="font-size:12px;fill:none;fill-rule:evenodd;stroke:#000000;stroke-width:0.25;stroke-linecap:round;stroke-opacity:1;stroke-miterlimit:4;stroke-dasharray:none"
     d="m 193.01323,80.768846 a 0.5,0.5 0 0 0 0.5,0.5 h 13 a 0.5,0.5 0 0 0 0.5,-0.5 v -0.5 h 0.3 a 0.5,0.5 0 0 0 0.5,-0.5 v -2.1 a 0.5,0.5 0 0 0 -0.5,-0.5 h -0.3 v -5.8 h 0.3 a 0.5,0.5 0 0 0 0.5,-0.5 v -2.1 a 0.5,0.5 0 0 0 -0.5,-0.5 h -0.3 v -0.5 a 0.5,0.5 0 0 0 -0.5,-0.5 h -13 a 0.5,0.5 0 0 0 -0.5,0.5 v 0.5 h -0.3 a 0.5,0.5 0 0 0 -0.5,0.5 v 2.1 a 0.5,0.5 0 0 0 0.5,0.5 h 0.3 v 5.8 h -0.3 a 0.5,0.5 0 0 0 -0.5,0.5 v 2.1 a 0.5,0.5 0 0 0 0.5,0.5 h 0.3 z"
     id="path1082" />
  <path
     style="font-size:12px;fill:none;fill-rule:evenodd;stroke:#000000;stroke-width:0.25;stroke-linecap:round;stroke-opacity:1;stroke-miterlimit:4;stroke-dasharray:none"
     d="m 173.96323,80.768846 a 0.5,0.5 0 0 0 0.5,0.5 h 13 a 0.5,0.5 0 0 0 0.5,-0.5 v -0.5 h 0.3 a 0.5,0.5 0 0 0 0.5,-0.5 v -2.1 a 0.5,0.5 0 0 0 -0.5,-0.5 h -0.3 v -5.8 h 0.3 a 0.5,0.5 0 0 0 0.5,-0.5 v -2.1 a 0.5,0.5 0 0 0 -0.5,-0.5 h -0.3 v -0.5 a 0.5,0.5 0 0 0 -0.5,-0.5 h -13 a 0.5,0.5 0 0 0 -0.5,0.5 v 0.5 h -0.3 a 0.5,0.5 0 0 0 -0.5,0.5 v 2.1 a 0.5,0.5 0 0 0 0.5,0.5 h 0.3 v 5.8 h -0.3 a 0.5,0.5 0 0 0 -0.5,0.5 v 2.1 a 0.5,0.5 0 0 0 0.5,0.5 h 0.3 z"
     id="path1080" />
  <path
     style="font-size:12px;fill:none;fill-rule:evenodd;stroke:#000000;stroke-width:0.25;stroke-linecap:round;stroke-opacity:1;stroke-miterlimit:4;stroke-dasharray:none"
     d="m 154.91323,80.768846 a 0.5,0.5 0 0 0 0.5,0.5 h 13 a 0.5,0.5 0 0 0 0.5,-0.5 v -0.5 h 0.3 a 0.5,0.5 0 0 0 0.5,-0.5 v -2.1 a 0.5,0.5 0 0 0 -0.5,-0.5 h -0.3 v -5.8 h 0.3 a 0.5,0.5 0 0 0 0.5,-0.5 v -2.1 a 0.5,0.5 0 0 0 -0.5,-0.5 h -0.3 v -0.5 a 0.5,0.5 0 0 0 -0.5,-0.5 h -13 a 0.5,0.5 0 0 0 -0.5,0.5 v 0.5 h -0.3 a 0.5,0.5 0 0 0 -0.5,0.5 v 2.1 a 0.5,0.5 0 0 0 0.5,0.5 h 0.3 v 5.8 h -0.3 a 0.5,0.5 0 0 0 -0.5,0.5 v 2.1 a 0.5,0.5 0 0 0 0.5,0.5 h 0.3 z"
     id="path1078" />
  <path
     style="font-size:12px;fill:none;fill-rule:evenodd;stroke:#000000;stroke-width:0.25;stroke-linecap:round;stroke-opacity:1;stroke-miterlimit:4;stroke-dasharray:none"
     d="m 135.86323,80.768846 a 0.5,0.5 0 0 0 0.5,0.5 h 13 a 0.5,0.5 0 0 0 0.5,-0.5 v -0.5 h 0.3 a 0.5,0.5 0 0 0 0.5,-0.5 v -2.1 a 0.5,0.5 0 0 0 -0.5,-0.5 h -0.3 v -5.8 h 0.3 a 0.5,0.5 0 0 0 0.5,-0.5 v -2.1 a 0.5,0.5 0 0 0 -0.5,-0.5 h -0.3 v -0.5 a 0.5,0.5 0 0 0 -0.5,-0.5 h -13 a 0.5,0.5 0 0 0 -0.5,0.5 v 0.5 h -0.3 a 0.5,0.5 0 0 0 -0.5,0.5 v 2.1 a 0.5,0.5 0 0 0 0.5,0.5 h 0.3 v 5.8 h -0.3 a 0.5,0.5 0 0 0 -0.5,0.5 v 2.1 a 0.5,0.5 0 0 0 0.5,0.5 h 0.3 z"
     id="path1076" />
  <path
     style="font-size:12px;fill:none;fill-rule:evenodd;stroke:#000000;stroke-width:0.25;stroke-linecap:round;stroke-opacity:1;stroke-miterlimit:4;stroke-dasharray:none"
     d="m 116.81323,80.768846 a 0.5,0.5 0 0 0 0.5,0.5 h 13 a 0.5,0.5 0 0 0 0.5,-0.5 v -0.5 h 0.3 a 0.5,0.5 0 0 0 0.5,-0.5 v -2.1 a 0.5,0.5 0 0 0 -0.5,-0.5 h -0.3 v -5.8 h 0.3 a 0.5,0.5 0 0 0 0.5,-0.5 v -2.1 a 0.5,0.5 0 0 0 -0.5,-0.5 h -0.3 v -0.5 a 0.5,0.5 0 0 0 -0.5,-0.5 h -13 a 0.5,0.5 0 0 0 -0.5,0.5 v 0.5 h -0.3 a 0.5,0.5 0 0 0 -0.5,0.5 v 2.1 a 0.5,0.5 0 0 0 0.5,0.5 h 0.3 v 5.8 h -0.3 a 0.5,0.5 0 0 0 -0.5,0.5 v 2.1 a 0.5,0.5 0 0 0 0.5,0.5 h 0.3 z"
     id="path1074" />
  <path
     style="font-size:12px;fill:none;fill-rule:evenodd;stroke:#000000;stroke-width:0.25;stroke-linecap:round;stroke-opacity:1;stroke-miterlimit:4;stroke-dasharray:none"
     d="m 97.763226,80.768846 a 0.5,0.5 0 0 0 0.5,0.5 h 13.000004 a 0.5,0.5 0 0 0 0.5,-0.5 v -0.5 h 0.3 a 0.5,0.5 0 0 0 0.5,-0.5 v -2.1 a 0.5,0.5 0 0 0 -0.5,-0.5 h -0.3 v -5.8 h 0.3 a 0.5,0.5 0 0 0 0.5,-0.5 v -2.1 a 0.5,0.5 0 0 0 -0.5,-0.5 h -0.3 v -0.5 a 0.5,0.5 0 0 0 -0.5,-0.5 H 98.263226 a 0.5,0.5 0 0 0 -0.5,0.5 v 0.5 h -0.3 a 0.5,0.5 0 0 0 -0.5,0.5 v 2.1 a 0.5,0.5 0 0 0 0.5,0.5 h 0.3 v 5.8 h -0.3 a 0.5,0.5 0 0 0 -0.5,0.5 v 2.1 a 0.5,0.5 0 0 0 0.5,0.5 h 0.3 z"
     id="path1072" />
  <path
     style="font-size:12px;fill:none;fill-rule:evenodd;stroke:#000000;stroke-width:0.25;stroke-linecap:round;stroke-opacity:1;stroke-miterlimit:4;stroke-dasharray:none"
     d="m 78.713226,80.768846 a 0.5,0.5 0 0 0 0.5,0.5 h 13 a 0.5,0.5 0 0 0 0.5,-0.5 v -0.5 h 0.3 a 0.5,0.5 0 0 0 0.5,-0.5 v -2.1 a 0.5,0.5 0 0 0 -0.5,-0.5 h -0.3 v -5.8 h 0.3 a 0.5,0.5 0 0 0 0.5,-0.5 v -2.1 a 0.5,0.5 0 0 0 -0.5,-0.5 h -0.3 v -0.5 a 0.5,0.5 0 0 0 -0.5,-0.5 h -13 a 0.5,0.5 0 0 0 -0.5,0.5 v 0.5 h -0.3 a 0.5,0.5 0 0 0 -0.5,0.5 v 2.1 a 0.5,0.5 0 0 0 0.5,0.5 h 0.3 v 5.8 h -0.3 a 0.5,0.5 0 0 0 -0.5,0.5 v 2.1 a 0.5,0.5 0 0 0 0.5,0.5 h 0.3 z"
     id="path1070" />
  <path
     style="font-size:12px;fill:none;fill-rule:evenodd;stroke:#000000;stroke-width:0.25;stroke-linecap:round;stroke-opacity:1;stroke-miterlimit:4;stroke-dasharray:none"
     d="m 59.663226,80.768846 a 0.5,0.5 0 0 0 0.5,0.5 h 13 a 0.5,0.5 0 0 0 0.5,-0.5 v -0.5 h 0.3 a 0.5,0.5 0 0 0 0.5,-0.5 v -2.1 a 0.5,0.5 0 0 0 -0.5,-0.5 h -0.3 v -5.8 h 0.3 a 0.5,0.5 0 0 0 0.5,-0.5 v -2.1 a 0.5,0.5 0 0 0 -0.5,-0.5 h -0.3 v -0.5 a 0.5,0.5 0 0 0 -0.5,-0.5 h -13 a 0.5,0.5 0 0 0 -0.5,0.5 v 0.5 h -0.3 a 0.5,0.5 0 0 0 -0.5,0.5 v 2.1 a 0.5,0.5 0 0 0 0.5,0.5 h 0.3 v 5.8 h -0.3 a 0.5,0.5 0 0 0 -0.5,0.5 v 2.1 a 0.5,0.5 0 0 0 0.5,0.5 h 0.3 z"
     id="path1068" />
  <path
     style="font-size:12px;fill:none;fill-rule:evenodd;stroke:#000000;stroke-width:0.25;stroke-linecap:round;stroke-opacity:1;stroke-miterlimit:4;stroke-dasharray:none"
     d="m 40.613226,80.768846 a 0.5,0.5 0 0 0 0.5,0.5 h 13 a 0.5,0.5 0 0 0 0.5,-0.5 v -0.5 h 0.3 a 0.5,0.5 0 0 0 0.5,-0.5 v -2.1 a 0.5,0.5 0 0 0 -0.5,-0.5 h -0.3 v -5.8 h 0.3 a 0.5,0.5 0 0 0 0.5,-0.5 v -2.1 a 0.5,0.5 0 0 0 -0.5,-0.5 h -0.3 v -0.5 a 0.5,0.5 0 0 0 -0.5,-0.5 h -13 a 0.5,0.5 0 0 0 -0.5,0.5 v 0.5 h -0.3 a 0.5,0.5 0 0 0 -0.5,0.5 v 2.1 a 0.5,0.5 0 0 0 0.5,0.5 h 0.3 v 5.8 h -0.3 a 0.5,0.5 0 0 0 -0.5,0.5 v 2.1 a 0.5,0.5 0 0 0 0.5,0.5 h 0.3 z"
     id="path1066" />
  <path
     style="font-size:12px;fill:none;fill-rule:evenodd;stroke:#000000;stroke-width:0.25;stroke-linecap:round;stroke-opacity:1;stroke-miterlimit:4;stroke-dasharray:none"
     d="m 21.563226,80.768846 a 0.5,0.5 0 0 0 0.5,0.5 h 13 a 0.5,0.5 0 0 0 0.5,-0.5 v -0.5 h 0.3 a 0.5,0.5 0 0 0 0.5,-0.5 v -2.1 a 0.5,0.5 0 0 0 -0.5,-0.5 h -0.3 v -5.8 h 0.3 a 0.5,0.5 0 0 0 0.5,-0.5 v -2.1 a 0.5,0.5 0 0 0 -0.5,-0.5 h -0.3 v -0.5 a 0.5,0.5 0 0 0 -0.5,-0.5 h -13 a 0.5,0.5 0 0 0 -0.5,0.5 v 0.5 h -0.3 a 0.5,0.5 0 0 0 -0.5,0.5 v 2.1 a 0.5,0.5 0 0 0 0.5,0.5 h 0.3 v 5.8 h -0.3 a 0.5,0.5 0 0 0 -0.5,0.5 v 2.1 a 0.5,0.5 0 0 0 0.5,0.5 h 0.3 z"
     id="path1064" />
  <path
     style="font-size:12px;fill:none;fill-rule:evenodd;stroke:#000000;stroke-width:0.25;stroke-linecap:round;stroke-opacity:1;stroke-miterlimit:4;stroke-dasharray:none"
     d="m 2.5132257,80.768846 a 0.5,0.5 0 0 0 0.5,0.5 H 16.013226 a 0.5,0.5 0 0 0 0.5,-0.5 v -0.5 h 0.3 a 0.5,0.5 0 0 0 0.5,-0.5 v -2.1 a 0.5,0.5 0 0 0 -0.5,-0.5 h -0.3 v -5.8 h 0.3 a 0.5,0.5 0 0 0 0.5,-0.5 v -2.1 a 0.5,0.5 0 0 0 -0.5,-0.5 h -0.3 v -0.5 a 0.5,0.5 0 0 0 -0.5,-0.5 H 3.0132257 a 0.5,0.5 0 0 0 -0.5,0.5 v 0.5 h -0.3 a 0.5,0.5 0 0 0 -0.5,0.5 v 2.1 a 0.5,0.5 0 0 0 0.5,0.5 h 0.3 v 5.8 h -0.3 a 0.5,0.5 0 0 0 -0.5,0.5 v 2.1 a 0.5,0.5 0 0 0 0.5,0.5 h 0.3 z"
     id="path1062" />
  <path
     style="font-size:12px;fill:none;fill-rule:evenodd;stroke:#000000;stroke-width:0.25;stroke-linecap:round;stroke-opacity:1;stroke-miterlimit:4;stroke-dasharray:none"
     d="m 269.21323,61.718846 a 0.5,0.5 0 0 0 0.5,0.5 h 13 a 0.5,0.5 0 0 0 0.5,-0.5 v -0.5 h 0.3 a 0.5,0.5 0 0 0 0.5,-0.5 v -2.1 a 0.5,0.5 0 0 0 -0.5,-0.5 h -0.3 v -5.8 h 0.3 a 0.5,0.5 0 0 0 0.5,-0.5 v -2.1 a 0.5,0.5 0 0 0 -0.5,-0.5 h -0.3 v -0.5 a 0.5,0.5 0 0 0 -0.5,-0.5 h -13 a 0.5,0.5 0 0 0 -0.5,0.5 v 0.5 h -0.3 a 0.5,0.5 0 0 0 -0.5,0.5 v 2.1 a 0.5,0.5 0 0 0 0.5,0.5 h 0.3 v 5.8 h -0.3 a 0.5,0.5 0 0 0 -0.5,0.5 v 2.1 a 0.5,0.5 0 0 0 0.5,0.5 h 0.3 z"
     id="path1060" />
  <path
     style="font-size:12px;fill:none;fill-rule:evenodd;stroke:#000000;stroke-width:0.25;stroke-linecap:round;stroke-opacity:1;stroke-miterlimit:4;stroke-dasharray:none"
     d="m 250.16323,61.718846 a 0.5,0.5 0 0 0 0.5,0.5 h 13 a 0.5,0.5 0 0 0 0.5,-0.5 v -0.5 h 0.3 a 0.5,0.5 0 0 0 0.5,-0.5 v -2.1 a 0.5,0.5 0 0 0 -0.5,-0.5 h -0.3 v -5.8 h 0.3 a 0.5,0.5 0 0 0 0.5,-0.5 v -2.1 a 0.5,0.5 0 0 0 -0.5,-0.5 h -0.3 v -0.5 a 0.5,0.5 0 0 0 -0.5,-0.5 h -13 a 0.5,0.5 0 0 0 -0.5,0.5 v 0.5 h -0.3 a 0.5,0.5 0 0 0 -0.5,0.5 v 2.1 a 0.5,0.5 0 0 0 0.5,0.5 h 0.3 v 5.8 h -0.3 a 0.5,0.5 0 0 0 -0.5,0.5 v 2.1 a 0.5,0.5 0 0 0 0.5,0.5 h 0.3 z"
     id="path1058" />
  <path
     style="font-size:12px;fill:none;fill-rule:evenodd;stroke:#000000;stroke-width:0.25;stroke-linecap:round;stroke-opacity:1;stroke-miterlimit:4;stroke-dasharray:none"
     d="m 231.11323,61.718846 a 0.5,0.5 0 0 0 0.5,0.5 h 13 a 0.5,0.5 0 0 0 0.5,-0.5 v -0.5 h 0.3 a 0.5,0.5 0 0 0 0.5,-0.5 v -2.1 a 0.5,0.5 0 0 0 -0.5,-0.5 h -0.3 v -5.8 h 0.3 a 0.5,0.5 0 0 0 0.5,-0.5 v -2.1 a 0.5,0.5 0 0 0 -0.5,-0.5 h -0.3 v -0.5 a 0.5,0.5 0 0 0 -0.5,-0.5 h -13 a 0.5,0.5 0 0 0 -0.5,0.5 v 0.5 h -0.3 a 0.5,0.5 0 0 0 -0.5,0.5 v 2.1 a 0.5,0.5 0 0 0 0.5,0.5 h 0.3 v 5.8 h -0.3 a 0.5,0.5 0 0 0 -0.5,0.5 v 2.1 a 0.5,0.5 0 0 0 0.5,0.5 h 0.3 z"
     id="path1056" />
  <path
     style="font-size:12px;fill:none;fill-rule:evenodd;stroke:#000000;stroke-width:0.25;stroke-linecap:round;stroke-opacity:1;stroke-miterlimit:4;stroke-dasharray:none"
     d="m 212.06323,61.718846 a 0.5,0.5 0 0 0 0.5,0.5 h 13 a 0.5,0.5 0 0 0 0.5,-0.5 v -0.5 h 0.3 a 0.5,0.5 0 0 0 0.5,-0.5 v -2.1 a 0.5,0.5 0 0 0 -0.5,-0.5 h -0.3 v -5.8 h 0.3 a 0.5,0.5 0 0 0 0.5,-0.5 v -2.1 a 0.5,0.5 0 0 0 -0.5,-0.5 h -0.3 v -0.5 a 0.5,0.5 0 0 0 -0.5,-0.5 h -13 a 0.5,0.5 0 0 0 -0.5,0.5 v 0.5 h -0.3 a 0.5,0.5 0 0 0 -0.5,0.5 v 2.1 a 0.5,0.5 0 0 0 0.5,0.5 h 0.3 v 5.8 h -0.3 a 0.5,0.5 0 0 0 -0.5,0.5 v 2.1 a 0.5,0.5 0 0 0 0.5,0.5 h 0.3 z"
     id="path1054" />
  <path
     style="font-size:12px;fill:none;fill-rule:evenodd;stroke:#000000;stroke-width:0.25;stroke-linecap:round;stroke-opacity:1;stroke-miterlimit:4;stroke-dasharray:none"
     d="m 193.01323,61.718846 a 0.5,0.5 0 0 0 0.5,0.5 h 13 a 0.5,0.5 0 0 0 0.5,-0.5 v -0.5 h 0.3 a 0.5,0.5 0 0 0 0.5,-0.5 v -2.1 a 0.5,0.5 0 0 0 -0.5,-0.5 h -0.3 v -5.8 h 0.3 a 0.5,0.5 0 0 0 0.5,-0.5 v -2.1 a 0.5,0.5 0 0 0 -0.5,-0.5 h -0.3 v -0.5 a 0.5,0.5 0 0 0 -0.5,-0.5 h -13 a 0.5,0.5 0 0 0 -0.5,0.5 v 0.5 h -0.3 a 0.5,0.5 0 0 0 -0.5,0.5 v 2.1 a 0.5,0.5 0 0 0 0.5,0.5 h 0.3 v 5.8 h -0.3 a 0.5,0.5 0 0 0 -0.5,0.5 v 2.1 a 0.5,0.5 0 0 0 0.5,0.5 h 0.3 z"
     id="path1052" />
  <path
     style="font-size:12px;fill:none;fill-rule:evenodd;stroke:#000000;stroke-width:0.25;stroke-linecap:round;stroke-opacity:1;stroke-miterlimit:4;stroke-dasharray:none"
     d="m 173.96323,61.718846 a 0.5,0.5 0 0 0 0.5,0.5 h 13 a 0.5,0.5 0 0 0 0.5,-0.5 v -0.5 h 0.3 a 0.5,0.5 0 0 0 0.5,-0.5 v -2.1 a 0.5,0.5 0 0 0 -0.5,-0.5 h -0.3 v -5.8 h 0.3 a 0.5,0.5 0 0 0 0.5,-0.5 v -2.1 a 0.5,0.5 0 0 0 -0.5,-0.5 h -0.3 v -0.5 a 0.5,0.5 0 0 0 -0.5,-0.5 h -13 a 0.5,0.5 0 0 0 -0.5,0.5 v 0.5 h -0.3 a 0.5,0.5 0 0 0 -0.5,0.5 v 2.1 a 0.5,0.5 0 0 0 0.5,0.5 h 0.3 v 5.8 h -0.3 a 0.5,0.5 0 0 0 -0.5,0.5 v 2.1 a 0.5,0.5 0 0 0 0.5,0.5 h 0.3 z"
     id="path1050" />
  <path
     style="font-size:12px;fill:none;fill-rule:evenodd;stroke:#000000;stroke-width:0.25;stroke-linecap:round;stroke-opacity:1;stroke-miterlimit:4;stroke-dasharray:none"
     d="m 97.763226,61.718846 a 0.5,0.5 0 0 0 0.5,0.5 h 13.000004 a 0.5,0.5 0 0 0 0.5,-0.5 v -0.5 h 0.3 a 0.5,0.5 0 0 0 0.5,-0.5 v -2.1 a 0.5,0.5 0 0 0 -0.5,-0.5 h -0.3 v -5.8 h 0.3 a 0.5,0.5 0 0 0 0.5,-0.5 v -2.1 a 0.5,0.5 0 0 0 -0.5,-0.5 h -0.3 v -0.5 a 0.5,0.5 0 0 0 -0.5,-0.5 H 98.263226 a 0.5,0.5 0 0 0 -0.5,0.5 v 0.5 h -0.3 a 0.5,0.5 0 0 0 -0.5,0.5 v 2.1 a 0.5,0.5 0 0 0 0.5,0.5 h 0.3 v 5.8 h -0.3 a 0.5,0.5 0 0 0 -0.5,0.5 v 2.1 a 0.5,0.5 0 0 0 0.5,0.5 h 0.3 z"
     id="path1048" />
  <path
     style="font-size:12px;fill:none;fill-rule:evenodd;stroke:#000000;stroke-width:0.25;stroke-linecap:round;stroke-opacity:1;stroke-miterlimit:4;stroke-dasharray:none"
     d="m 78.713226,61.718846 a 0.5,0.5 0 0 0 0.5,0.5 h 13 a 0.5,0.5 0 0 0 0.5,-0.5 v -0.5 h 0.3 a 0.5,0.5 0 0 0 0.5,-0.5 v -2.1 a 0.5,0.5 0 0 0 -0.5,-0.5 h -0.3 v -5.8 h 0.3 a 0.5,0.5 0 0 0 0.5,-0.5 v -2.1 a 0.5,0.5 0 0 0 -0.5,-0.5 h -0.3 v -0.5 a 0.5,0.5 0 0 0 -0.5,-0.5 h -13 a 0.5,0.5 0 0 0 -0.5,0.5 v 0.5 h -0.3 a 0.5,0.5 0 0 0 -0.5,0.5 v 2.1 a 0.5,0.5 0 0 0 0.5,0.5 h 0.3 v 5.8 h -0.3 a 0.5,0.5 0 0 0 -0.5,0.5 v 2.1 a 0.5,0.5 0 0 0 0.5,0.5 h 0.3 z"
     id="path1046" />
  <path
     style="font-size:12px;fill:none;fill-rule:evenodd;stroke:#000000;stroke-width:0.25;stroke-linecap:round;stroke-opacity:1;stroke-miterlimit:4;stroke-dasharray:none"
     d="m 59.663226,61.718846 a 0.5,0.5 0 0 0 0.5,0.5 h 13 a 0.5,0.5 0 0 0 0.5,-0.5 v -0.5 h 0.3 a 0.5,0.5 0 0 0 0.5,-0.5 v -2.1 a 0.5,0.5 0 0 0 -0.5,-0.5 h -0.3 v -5.8 h 0.3 a 0.5,0.5 0 0 0 0.5,-0.5 v -2.1 a 0.5,0.5 0 0 0 -0.5,-0.5 h -0.3 v -0.5 a 0.5,0.5 0 0 0 -0.5,-0.5 h -13 a 0.5,0.5 0 0 0 -0.5,0.5 v 0.5 h -0.3 a 0.5,0.5 0 0 0 -0.5,0.5 v 2.1 a 0.5,0.5 0 0 0 0.5,0.5 h 0.3 v 5.8 h -0.3 a 0.5,0.5 0 0 0 -0.5,0.5 v 2.1 a 0.5,0.5 0 0 0 0.5,0.5 h 0.3 z"
     id="path1044" />
  <path
     style="font-size:12px;fill:none;fill-rule:evenodd;stroke:#000000;stroke-width:0.25;stroke-linecap:round;stroke-opacity:1;stroke-miterlimit:4;stroke-dasharray:none"
     d="m 40.613226,61.718846 a 0.5,0.5 0 0 0 0.5,0.5 h 13 a 0.5,0.5 0 0 0 0.5,-0.5 v -0.5 h 0.3 a 0.5,0.5 0 0 0 0.5,-0.5 v -2.1 a 0.5,0.5 0 0 0 -0.5,-0.5 h -0.3 v -5.8 h 0.3 a 0.5,0.5 0 0 0 0.5,-0.5 v -2.1 a 0.5,0.5 0 0 0 -0.5,-0.5 h -0.3 v -0.5 a 0.5,0.5 0 0 0 -0.5,-0.5 h -13 a 0.5,0.5 0 0 0 -0.5,0.5 v 0.5 h -0.3 a 0.5,0.5 0 0 0 -0.5,0.5 v 2.1 a 0.5,0.5 0 0 0 0.5,0.5 h 0.3 v 5.8 h -0.3 a 0.5,0.5 0 0 0 -0.5,0.5 v 2.1 a 0.5,0.5 0 0 0 0.5,0.5 h 0.3 z"
     id="path1042" />
  <path
     style="font-size:12px;fill:none;fill-rule:evenodd;stroke:#000000;stroke-width:0.25;stroke-linecap:round;stroke-opacity:1;stroke-miterlimit:4;stroke-dasharray:none"
     d="m 21.563226,61.718846 a 0.5,0.5 0 0 0 0.5,0.5 h 13 a 0.5,0.5 0 0 0 0.5,-0.5 v -0.5 h 0.3 a 0.5,0.5 0 0 0 0.5,-0.5 v -2.1 a 0.5,0.5 0 0 0 -0.5,-0.5 h -0.3 v -5.8 h 0.3 a 0.5,0.5 0 0 0 0.5,-0.5 v -2.1 a 0.5,0.5 0 0 0 -0.5,-0.5 h -0.3 v -0.5 a 0.5,0.5 0 0 0 -0.5,-0.5 h -13 a 0.5,0.5 0 0 0 -0.5,0.5 v 0.5 h -0.3 a 0.5,0.5 0 0 0 -0.5,0.5 v 2.1 a 0.5,0.5 0 0 0 0.5,0.5 h 0.3 v 5.8 h -0.3 a 0.5,0.5 0 0 0 -0.5,0.5 v 2.1 a 0.5,0.5 0 0 0 0.5,0.5 h 0.3 z"
     id="path1040" />
  <path
     style="font-size:12px;fill:none;fill-rule:evenodd;stroke:#000000;stroke-width:0.25;stroke-linecap:round;stroke-opacity:1;stroke-miterlimit:4;stroke-dasharray:none"
     d="m 2.5132257,61.718846 a 0.5,0.5 0 0 0 0.5,0.5 H 16.013226 a 0.5,0.5 0 0 0 0.5,-0.5 v -0.5 h 0.3 a 0.5,0.5 0 0 0 0.5,-0.5 v -2.1 a 0.5,0.5 0 0 0 -0.5,-0.5 h -0.3 v -5.8 h 0.3 a 0.5,0.5 0 0 0 0.5,-0.5 v -2.1 a 0.5,0.5 0 0 0 -0.5,-0.5 h -0.3 v -0.5 a 0.5,0.5 0 0 0 -0.5,-0.5 H 3.0132257 a 0.5,0.5 0 0 0 -0.5,0.5 v 0.5 h -0.3 a 0.5,0.5 0 0 0 -0.5,0.5 v 2.1 a 0.5,0.5 0 0 0 0.5,0.5 h 0.3 v 5.8 h -0.3 a 0.5,0.5 0 0 0 -0.5,0.5 v 2.1 a 0.5,0.5 0 0 0 0.5,0.5 h 0.3 z"
     id="path1038" />
  <path
     style="font-size:12px;fill:none;fill-rule:evenodd;stroke:#000000;stroke-width:0.25;stroke-linecap:round;stroke-opacity:1;stroke-miterlimit:4;stroke-dasharray:none"
     d="m 269.21323,42.668846 a 0.5,0.5 0 0 0 0.5,0.5 h 13 a 0.5,0.5 0 0 0 0.5,-0.5 v -0.5 h 0.3 a 0.5,0.5 0 0 0 0.5,-0.5 v -2.1 a 0.5,0.5 0 0 0 -0.5,-0.5 h -0.3 v -5.8 h 0.3 a 0.5,0.5 0 0 0 0.5,-0.5 v -2.1 a 0.5,0.5 0 0 0 -0.5,-0.5 h -0.3 v -0.5 a 0.5,0.5 0 0 0 -0.5,-0.5 h -13 a 0.5,0.5 0 0 0 -0.5,0.5 v 0.5 h -0.3 a 0.5,0.5 0 0 0 -0.5,0.5 v 2.1 a 0.5,0.5 0 0 0 0.5,0.5 h 0.3 v 5.8 h -0.3 a 0.5,0.5 0 0 0 -0.5,0.5 v 2.1 a 0.5,0.5 0 0 0 0.5,0.5 h 0.3 z"
     id="path1036" />
  <path
     style="font-size:12px;fill:none;fill-rule:evenodd;stroke:#000000;stroke-width:0.25;stroke-linecap:round;stroke-opacity:1;stroke-miterlimit:4;stroke-dasharray:none"
     d="m 250.16323,42.668846 a 0.5,0.5 0 0 0 0.5,0.5 h 13 a 0.5,0.5 0 0 0 0.5,-0.5 v -0.5 h 0.3 a 0.5,0.5 0 0 0 0.5,-0.5 v -2.1 a 0.5,0.5 0 0 0 -0.5,-0.5 h -0.3 v -5.8 h 0.3 a 0.5,0.5 0 0 0 0.5,-0.5 v -2.1 a 0.5,0.5 0 0 0 -0.5,-0.5 h -0.3 v -0.5 a 0.5,0.5 0 0 0 -0.5,-0.5 h -13 a 0.5,0.5 0 0 0 -0.5,0.5 v 0.5 h -0.3 a 0.5,0.5 0 0 0 -0.5,0.5 v 2.1 a 0.5,0.5 0 0 0 0.5,0.5 h 0.3 v 5.8 h -0.3 a 0.5,0.5 0 0 0 -0.5,0.5 v 2.1 a 0.5,0.5 0 0 0 0.5,0.5 h 0.3 z"
     id="path1034" />
  <path
     style="font-size:12px;fill:none;fill-rule:evenodd;stroke:#000000;stroke-width:0.25;stroke-linecap:round;stroke-opacity:1;stroke-miterlimit:4;stroke-dasharray:none"
     d="m 231.11323,42.668846 a 0.5,0.5 0 0 0 0.5,0.5 h 13 a 0.5,0.5 0 0 0 0.5,-0.5 v -0.5 h 0.3 a 0.5,0.5 0 0 0 0.5,-0.5 v -2.1 a 0.5,0.5 0 0 0 -0.5,-0.5 h -0.3 v -5.8 h 0.3 a 0.5,0.5 0 0 0 0.5,-0.5 v -2.1 a 0.5,0.5 0 0 0 -0.5,-0.5 h -0.3 v -0.5 a 0.5,0.5 0 0 0 -0.5,-0.5 h -13 a 0.5,0.5 0 0 0 -0.5,0.5 v 0.5 h -0.3 a 0.5,0.5 0 0 0 -0.5,0.5 v 2.1 a 0.5,0.5 0 0 0 0.5,0.5 h 0.3 v 5.8 h -0.3 a 0.5,0.5 0 0 0 -0.5,0.5 v 2.1 a 0.5,0.5 0 0 0 0.5,0.5 h 0.3 z"
     id="path1032" />
  <path
     style="font-size:12px;fill:none;fill-rule:evenodd;stroke:#000000;stroke-width:0.25;stroke-linecap:round;stroke-opacity:1;stroke-miterlimit:4;stroke-dasharray:none"
     d="m 212.06323,42.668846 a 0.5,0.5 0 0 0 0.5,0.5 h 13 a 0.5,0.5 0 0 0 0.5,-0.5 v -0.5 h 0.3 a 0.5,0.5 0 0 0 0.5,-0.5 v -2.1 a 0.5,0.5 0 0 0 -0.5,-0.5 h -0.3 v -5.8 h 0.3 a 0.5,0.5 0 0 0 0.5,-0.5 v -2.1 a 0.5,0.5 0 0 0 -0.5,-0.5 h -0.3 v -0.5 a 0.5,0.5 0 0 0 -0.5,-0.5 h -13 a 0.5,0.5 0 0 0 -0.5,0.5 v 0.5 h -0.3 a 0.5,0.5 0 0 0 -0.5,0.5 v 2.1 a 0.5,0.5 0 0 0 0.5,0.5 h 0.3 v 5.8 h -0.3 a 0.5,0.5 0 0 0 -0.5,0.5 v 2.1 a 0.5,0.5 0 0 0 0.5,0.5 h 0.3 z"
     id="path1030" />
  <path
     style="font-size:12px;fill:none;fill-rule:evenodd;stroke:#000000;stroke-width:0.25;stroke-linecap:round;stroke-opacity:1;stroke-miterlimit:4;stroke-dasharray:none"
     d="m 193.01323,42.668846 a 0.5,0.5 0 0 0 0.5,0.5 h 13 a 0.5,0.5 0 0 0 0.5,-0.5 v -0.5 h 0.3 a 0.5,0.5 0 0 0 0.5,-0.5 v -2.1 a 0.5,0.5 0 0 0 -0.5,-0.5 h -0.3 v -5.8 h 0.3 a 0.5,0.5 0 0 0 0.5,-0.5 v -2.1 a 0.5,0.5 0 0 0 -0.5,-0.5 h -0.3 v -0.5 a 0.5,0.5 0 0 0 -0.5,-0.5 h -13 a 0.5,0.5 0 0 0 -0.5,0.5 v 0.5 h -0.3 a 0.5,0.5 0 0 0 -0.5,0.5 v 2.1 a 0.5,0.5 0 0 0 0.5,0.5 h 0.3 v 5.8 h -0.3 a 0.5,0.5 0 0 0 -0.5,0.5 v 2.1 a 0.5,0.5 0 0 0 0.5,0.5 h 0.3 z"
     id="path1028" />
  <path
     style="font-size:12px;fill:none;fill-rule:evenodd;stroke:#000000;stroke-width:0.25;stroke-linecap:round;stroke-opacity:1;stroke-miterlimit:4;stroke-dasharray:none"
     d="m 173.96323,42.668846 a 0.5,0.5 0 0 0 0.5,0.5 h 13 a 0.5,0.5 0 0 0 0.5,-0.5 v -0.5 h 0.3 a 0.5,0.5 0 0 0 0.5,-0.5 v -2.1 a 0.5,0.5 0 0 0 -0.5,-0.5 h -0.3 v -5.8 h 0.3 a 0.5,0.5 0 0 0 0.5,-0.5 v -2.1 a 0.5,0.5 0 0 0 -0.5,-0.5 h -0.3 v -0.5 a 0.5,0.5 0 0 0 -0.5,-0.5 h -13 a 0.5,0.5 0 0 0 -0.5,0.5 v 0.5 h -0.3 a 0.5,0.5 0 0 0 -0.5,0.5 v 2.1 a 0.5,0.5 0 0 0 0.5,0.5 h 0.3 v 5.8 h -0.3 a 0.5,0.5 0 0 0 -0.5,0.5 v 2.1 a 0.5,0.5 0 0 0 0.5,0.5 h 0.3 z"
     id="path1026" />
  <path
     style="font-size:12px;fill:none;fill-rule:evenodd;stroke:#000000;stroke-width:0.25;stroke-linecap:round;stroke-opacity:1;stroke-miterlimit:4;stroke-dasharray:none"
     d="m 154.91323,42.668846 a 0.5,0.5 0 0 0 0.5,0.5 h 13 a 0.5,0.5 0 0 0 0.5,-0.5 v -0.5 h 0.3 a 0.5,0.5 0 0 0 0.5,-0.5 v -2.1 a 0.5,0.5 0 0 0 -0.5,-0.5 h -0.3 v -5.8 h 0.3 a 0.5,0.5 0 0 0 0.5,-0.5 v -2.1 a 0.5,0.5 0 0 0 -0.5,-0.5 h -0.3 v -0.5 a 0.5,0.5 0 0 0 -0.5,-0.5 h -13 a 0.5,0.5 0 0 0 -0.5,0.5 v 0.5 h -0.3 a 0.5,0.5 0 0 0 -0.5,0.5 v 2.1 a 0.5,0.5 0 0 0 0.5,0.5 h 0.3 v 5.8 h -0.3 a 0.5,0.5 0 0 0 -0.5,0.5 v 2.1 a 0.5,0.5 0 0 0 0.5,0.5 h 0.3 z"
     id="path1024" />
  <path
     style="font-size:12px;fill:none;fill-rule:evenodd;stroke:#000000;stroke-width:0.25;stroke-linecap:round;stroke-opacity:1;stroke-miterlimit:4;stroke-dasharray:none"
     d="m 135.86323,42.668846 a 0.5,0.5 0 0 0 0.5,0.5 h 13 a 0.5,0.5 0 0 0 0.5,-0.5 v -0.5 h 0.3 a 0.5,0.5 0 0 0 0.5,-0.5 v -2.1 a 0.5,0.5 0 0 0 -0.5,-0.5 h -0.3 v -5.8 h 0.3 a 0.5,0.5 0 0 0 0.5,-0.5 v -2.1 a 0.5,0.5 0 0 0 -0.5,-0.5 h -0.3 v -0.5 a 0.5,0.5 0 0 0 -0.5,-0.5 h -13 a 0.5,0.5 0 0 0 -0.5,0.5 v 0.5 h -0.3 a 0.5,0.5 0 0 0 -0.5,0.5 v 2.1 a 0.5,0.5 0 0 0 0.5,0.5 h 0.3 v 5.8 h -0.3 a 0.5,0.5 0 0 0 -0.5,0.5 v 2.1 a 0.5,0.5 0 0 0 0.5,0.5 h 0.3 z"
     id="path1022" />
  <path
     style="font-size:12px;fill:none;fill-rule:evenodd;stroke:#000000;stroke-width:0.25;stroke-linecap:round;stroke-opacity:1;stroke-miterlimit:4;stroke-dasharray:none"
     d="m 116.81323,42.668846 a 0.5,0.5 0 0 0 0.5,0.5 h 13 a 0.5,0.5 0 0 0 0.5,-0.5 v -0.5 h 0.3 a 0.5,0.5 0 0 0 0.5,-0.5 v -2.1 a 0.5,0.5 0 0 0 -0.5,-0.5 h -0.3 v -5.8 h 0.3 a 0.5,0.5 0 0 0 0.5,-0.5 v -2.1 a 0.5,0.5 0 0 0 -0.5,-0.5 h -0.3 v -0.5 a 0.5,0.5 0 0 0 -0.5,-0.5 h -13 a 0.5,0.5 0 0 0 -0.5,0.5 v 0.5 h -0.3 a 0.5,0.5 0 0 0 -0.5,0.5 v 2.1 a 0.5,0.5 0 0 0 0.5,0.5 h 0.3 v 5.8 h -0.3 a 0.5,0.5 0 0 0 -0.5,0.5 v 2.1 a 0.5,0.5 0 0 0 0.5,0.5 h 0.3 z"
     id="path1020" />
  <path
     style="font-size:12px;fill:none;fill-rule:evenodd;stroke:#000000;stroke-width:0.25;stroke-linecap:round;stroke-opacity:1;stroke-miterlimit:4;stroke-dasharray:none"
     d="m 97.763226,42.668846 a 0.5,0.5 0 0 0 0.5,0.5 h 13.000004 a 0.5,0.5 0 0 0 0.5,-0.5 v -0.5 h 0.3 a 0.5,0.5 0 0 0 0.5,-0.5 v -2.1 a 0.5,0.5 0 0 0 -0.5,-0.5 h -0.3 v -5.8 h 0.3 a 0.5,0.5 0 0 0 0.5,-0.5 v -2.1 a 0.5,0.5 0 0 0 -0.5,-0.5 h -0.3 v -0.5 a 0.5,0.5 0 0 0 -0.5,-0.5 H 98.263226 a 0.5,0.5 0 0 0 -0.5,0.5 v 0.5 h -0.3 a 0.5,0.5 0 0 0 -0.5,0.5 v 2.1 a 0.5,0.5 0 0 0 0.5,0.5 h 0.3 v 5.8 h -0.3 a 0.5,0.5 0 0 0 -0.5,0.5 v 2.1 a 0.5,0.5 0 0 0 0.5,0.5 h 0.3 z"
     id="path1018" />
  <path
     style="font-size:12px;fill:none;fill-rule:evenodd;stroke:#000000;stroke-width:0.25;stroke-linecap:round;stroke-opacity:1;stroke-miterlimit:4;stroke-dasharray:none"
     d="m 78.713226,42.668846 a 0.5,0.5 0 0 0 0.5,0.5 h 13 a 0.5,0.5 0 0 0 0.5,-0.5 v -0.5 h 0.3 a 0.5,0.5 0 0 0 0.5,-0.5 v -2.1 a 0.5,0.5 0 0 0 -0.5,-0.5 h -0.3 v -5.8 h 0.3 a 0.5,0.5 0 0 0 0.5,-0.5 v -2.1 a 0.5,0.5 0 0 0 -0.5,-0.5 h -0.3 v -0.5 a 0.5,0.5 0 0 0 -0.5,-0.5 h -13 a 0.5,0.5 0 0 0 -0.5,0.5 v 0.5 h -0.3 a 0.5,0.5 0 0 0 -0.5,0.5 v 2.1 a 0.5,0.5 0 0 0 0.5,0.5 h 0.3 v 5.8 h -0.3 a 0.5,0.5 0 0 0 -0.5,0.5 v 2.1 a 0.5,0.5 0 0 0 0.5,0.5 h 0.3 z"
     id="path1016" />
  <path
     style="font-size:12px;fill:none;fill-rule:evenodd;stroke:#000000;stroke-width:0.25;stroke-linecap:round;stroke-opacity:1;stroke-miterlimit:4;stroke-dasharray:none"
     d="m 59.663226,42.668846 a 0.5,0.5 0 0 0 0.5,0.5 h 13 a 0.5,0.5 0 0 0 0.5,-0.5 v -0.5 h 0.3 a 0.5,0.5 0 0 0 0.5,-0.5 v -2.1 a 0.5,0.5 0 0 0 -0.5,-0.5 h -0.3 v -5.8 h 0.3 a 0.5,0.5 0 0 0 0.5,-0.5 v -2.1 a 0.5,0.5 0 0 0 -0.5,-0.5 h -0.3 v -0.5 a 0.5,0.5 0 0 0 -0.5,-0.5 h -13 a 0.5,0.5 0 0 0 -0.5,0.5 v 0.5 h -0.3 a 0.5,0.5 0 0 0 -0.5,0.5 v 2.1 a 0.5,0.5 0 0 0 0.5,0.5 h 0.3 v 5.8 h -0.3 a 0.5,0.5 0 0 0 -0.5,0.5 v 2.1 a 0.5,0.5 0 0 0 0.5,0.5 h 0.3 z"
     id="path1014" />
  <path
     style="font-size:12px;fill:none;fill-rule:evenodd;stroke:#000000;stroke-width:0.25;stroke-linecap:round;stroke-opacity:1;stroke-miterlimit:4;stroke-dasharray:none"
     d="m 40.613226,42.668846 a 0.5,0.5 0 0 0 0.5,0.5 h 13 a 0.5,0.5 0 0 0 0.5,-0.5 v -0.5 h 0.3 a 0.5,0.5 0 0 0 0.5,-0.5 v -2.1 a 0.5,0.5 0 0 0 -0.5,-0.5 h -0.3 v -5.8 h 0.3 a 0.5,0.5 0 0 0 0.5,-0.5 v -2.1 a 0.5,0.5 0 0 0 -0.5,-0.5 h -0.3 v -0.5 a 0.5,0.5 0 0 0 -0.5,-0.5 h -13 a 0.5,0.5 0 0 0 -0.5,0.5 v 0.5 h -0.3 a 0.5,0.5 0 0 0 -0.5,0.5 v 2.1 a 0.5,0.5 0 0 0 0.5,0.5 h 0.3 v 5.8 h -0.3 a 0.5,0.5 0 0 0 -0.5,0.5 v 2.1 a 0.5,0.5 0 0 0 0.5,0.5 h 0.3 z"
     id="path1012" />
  <path
     style="font-size:12px;fill:none;fill-rule:evenodd;stroke:#000000;stroke-width:0.25;stroke-linecap:round;stroke-opacity:1;stroke-miterlimit:4;stroke-dasharray:none"
     d="m 21.563226,42.668846 a 0.5,0.5 0 0 0 0.5,0.5 h 13 a 0.5,0.5 0 0 0 0.5,-0.5 v -0.5 h 0.3 a 0.5,0.5 0 0 0 0.5,-0.5 v -2.1 a 0.5,0.5 0 0 0 -0.5,-0.5 h -0.3 v -5.8 h 0.3 a 0.5,0.5 0 0 0 0.5,-0.5 v -2.1 a 0.5,0.5 0 0 0 -0.5,-0.5 h -0.3 v -0.5 a 0.5,0.5 0 0 0 -0.5,-0.5 h -13 a 0.5,0.5 0 0 0 -0.5,0.5 v 0.5 h -0.3 a 0.5,0.5 0 0 0 -0.5,0.5 v 2.1 a 0.5,0.5 0 0 0 0.5,0.5 h 0.3 v 5.8 h -0.3 a 0.5,0.5 0 0 0 -0.5,0.5 v 2.1 a 0.5,0.5 0 0 0 0.5,0.5 h 0.3 z"
     id="path1010" />
  <path
     style="font-size:12px;fill:none;fill-rule:evenodd;stroke:#000000;stroke-width:0.25;stroke-linecap:round;stroke-opacity:1;stroke-miterlimit:4;stroke-dasharray:none"
     d="m 2.5132257,42.668846 a 0.5,0.5 0 0 0 0.5,0.5 H 16.013226 a 0.5,0.5 0 0 0 0.5,-0.5 v -0.5 h 0.3 a 0.5,0.5 0 0 0 0.5,-0.5 v -2.1 a 0.5,0.5 0 0 0 -0.5,-0.5 h -0.3 v -5.8 h 0.3 a 0.5,0.5 0 0 0 0.5,-0.5 v -2.1 a 0.5,0.5 0 0 0 -0.5,-0.5 h -0.3 v -0.5 a 0.5,0.5 0 0 0 -0.5,-0.5 H 3.0132257 a 0.5,0.5 0 0 0 -0.5,0.5 v 0.5 h -0.3 a 0.5,0.5 0 0 0 -0.5,0.5 v 2.1 a 0.5,0.5 0 0 0 0.5,0.5 h 0.3 v 5.8 h -0.3 a 0.5,0.5 0 0 0 -0.5,0.5 v 2.1 a 0.5,0.5 0 0 0 0.5,0.5 h 0.3 z"
     id="path1008" />
  <path
     style="font-size:12px;fill:none;fill-rule:evenodd;stroke:#000000;stroke-width:0.25;stroke-linecap:round;stroke-opacity:1;stroke-miterlimit:4;stroke-dasharray:none"
     d="m 269.21323,23.618846 a 0.5,0.5 0 0 0 0.5,0.5 h 13 a 0.5,0.5 0 0 0 0.5,-0.5 v -0.5 h 0.3 a 0.5,0.5 0 0 0 0.5,-0.5 v -2.1 a 0.5,0.5 0 0 0 -0.5,-0.5 h -0.3 v -5.8 h 0.3 a 0.5,0.5 0 0 0 0.5,-0.5 v -2.1 a 0.5,0.5 0 0 0 -0.5,-0.5 h -0.3 v -0.5 a 0.5,0.5 0 0 0 -0.5,-0.5 h -13 a 0.5,0.5 0 0 0 -0.5,0.5 v 0.5 h -0.3 a 0.5,0.5 0 0 0 -0.5,0.5 v 2.1 a 0.5,0.5 0 0 0 0.5,0.5 h 0.3 v 5.8 h -0.3 a 0.5,0.5 0 0 0 -0.5,0.5 v 2.1 a 0.5,0.5 0 0 0 0.5,0.5 h 0.3 z"
     id="path1006" />
  <path
     style="font-size:12px;fill:none;fill-rule:evenodd;stroke:#000000;stroke-width:0.25;stroke-linecap:round;stroke-opacity:1;stroke-miterlimit:4;stroke-dasharray:none"
     d="m 250.16323,23.618846 a 0.5,0.5 0 0 0 0.5,0.5 h 13 a 0.5,0.5 0 0 0 0.5,-0.5 v -0.5 h 0.3 a 0.5,0.5 0 0 0 0.5,-0.5 v -2.1 a 0.5,0.5 0 0 0 -0.5,-0.5 h -0.3 v -5.8 h 0.3 a 0.5,0.5 0 0 0 0.5,-0.5 v -2.1 a 0.5,0.5 0 0 0 -0.5,-0.5 h -0.3 v -0.5 a 0.5,0.5 0 0 0 -0.5,-0.5 h -13 a 0.5,0.5 0 0 0 -0.5,0.5 v 0.5 h -0.3 a 0.5,0.5 0 0 0 -0.5,0.5 v 2.1 a 0.5,0.5 0 0 0 0.5,0.5 h 0.3 v 5.8 h -0.3 a 0.5,0.5 0 0 0 -0.5,0.5 v 2.1 a 0.5,0.5 0 0 0 0.5,0.5 h 0.3 z"
     id="path1004" />
  <path
     style="font-size:12px;fill:none;fill-rule:evenodd;stroke:#000000;stroke-width:0.25;stroke-linecap:round;stroke-opacity:1;stroke-miterlimit:4;stroke-dasharray:none"
     d="m 231.11323,23.618846 a 0.5,0.5 0 0 0 0.5,0.5 h 13 a 0.5,0.5 0 0 0 0.5,-0.5 v -0.5 h 0.3 a 0.5,0.5 0 0 0 0.5,-0.5 v -2.1 a 0.5,0.5 0 0 0 -0.5,-0.5 h -0.3 v -5.8 h 0.3 a 0.5,0.5 0 0 0 0.5,-0.5 v -2.1 a 0.5,0.5 0 0 0 -0.5,-0.5 h -0.3 v -0.5 a 0.5,0.5 0 0 0 -0.5,-0.5 h -13 a 0.5,0.5 0 0 0 -0.5,0.5 v 0.5 h -0.3 a 0.5,0.5 0 0 0 -0.5,0.5 v 2.1 a 0.5,0.5 0 0 0 0.5,0.5 h 0.3 v 5.8 h -0.3 a 0.5,0.5 0 0 0 -0.5,0.5 v 2.1 a 0.5,0.5 0 0 0 0.5,0.5 h 0.3 z"
     id="path1002" />
  <path
     style="font-size:12px;fill:none;fill-rule:evenodd;stroke:#000000;stroke-width:0.25;stroke-linecap:round;stroke-opacity:1;stroke-miterlimit:4;stroke-dasharray:none"
     d="m 212.06323,23.618846 a 0.5,0.5 0 0 0 0.5,0.5 h 13 a 0.5,0.5 0 0 0 0.5,-0.5 v -0.5 h 0.3 a 0.5,0.5 0 0 0 0.5,-0.5 v -2.1 a 0.5,0.5 0 0 0 -0.5,-0.5 h -0.3 v -5.8 h 0.3 a 0.5,0.5 0 0 0 0.5,-0.5 v -2.1 a 0.5,0.5 0 0 0 -0.5,-0.5 h -0.3 v -0.5 a 0.5,0.5 0 0 0 -0.5,-0.5 h -13 a 0.5,0.5 0 0 0 -0.5,0.5 v 0.5 h -0.3 a 0.5,0.5 0 0 0 -0.5,0.5 v 2.1 a 0.5,0.5 0 0 0 0.5,0.5 h 0.3 v 5.8 h -0.3 a 0.5,0.5 0 0 0 -0.5,0.5 v 2.1 a 0.5,0.5 0 0 0 0.5,0.5 h 0.3 z"
     id="path1000" />
  <path
     style="font-size:12px;fill:none;fill-rule:evenodd;stroke:#000000;stroke-width:0.25;stroke-linecap:round;stroke-opacity:1;stroke-miterlimit:4;stroke-dasharray:none"
     d="m 193.01323,23.618846 a 0.5,0.5 0 0 0 0.5,0.5 h 13 a 0.5,0.5 0 0 0 0.5,-0.5 v -0.5 h 0.3 a 0.5,0.5 0 0 0 0.5,-0.5 v -2.1 a 0.5,0.5 0 0 0 -0.5,-0.5 h -0.3 v -5.8 h 0.3 a 0.5,0.5 0 0 0 0.5,-0.5 v -2.1 a 0.5,0.5 0 0 0 -0.5,-0.5 h -0.3 v -0.5 a 0.5,0.5 0 0 0 -0.5,-0.5 h -13 a 0.5,0.5 0 0 0 -0.5,0.5 v 0.5 h -0.3 a 0.5,0.5 0 0 0 -0.5,0.5 v 2.1 a 0.5,0.5 0 0 0 0.5,0.5 h 0.3 v 5.8 h -0.3 a 0.5,0.5 0 0 0 -0.5,0.5 v 2.1 a 0.5,0.5 0 0 0 0.5,0.5 h 0.3 z"
     id="path998" />
  <path
     style="font-size:12px;fill:none;fill-rule:evenodd;stroke:#000000;stroke-width:0.25;stroke-linecap:round;stroke-opacity:1;stroke-miterlimit:4;stroke-dasharray:none"
     d="m 173.96323,23.618846 a 0.5,0.5 0 0 0 0.5,0.5 h 13 a 0.5,0.5 0 0 0 0.5,-0.5 v -0.5 h 0.3 a 0.5,0.5 0 0 0 0.5,-0.5 v -2.1 a 0.5,0.5 0 0 0 -0.5,-0.5 h -0.3 v -5.8 h 0.3 a 0.5,0.5 0 0 0 0.5,-0.5 v -2.1 a 0.5,0.5 0 0 0 -0.5,-0.5 h -0.3 v -0.5 a 0.5,0.5 0 0 0 -0.5,-0.5 h -13 a 0.5,0.5 0 0 0 -0.5,0.5 v 0.5 h -0.3 a 0.5,0.5 0 0 0 -0.5,0.5 v 2.1 a 0.5,0.5 0 0 0 0.5,0.5 h 0.3 v 5.8 h -0.3 a 0.5,0.5 0 0 0 -0.5,0.5 v 2.1 a 0.5,0.5 0 0 0 0.5,0.5 h 0.3 z"
     id="path996" />
  <path
     style="font-size:12px;fill:none;fill-rule:evenodd;stroke:#000000;stroke-width:0.25;stroke-linecap:round;stroke-opacity:1;stroke-miterlimit:4;stroke-dasharray:none"
     d="m 154.91323,23.618846 a 0.5,0.5 0 0 0 0.5,0.5 h 13 a 0.5,0.5 0 0 0 0.5,-0.5 v -0.5 h 0.3 a 0.5,0.5 0 0 0 0.5,-0.5 v -2.1 a 0.5,0.5 0 0 0 -0.5,-0.5 h -0.3 v -5.8 h 0.3 a 0.5,0.5 0 0 0 0.5,-0.5 v -2.1 a 0.5,0.5 0 0 0 -0.5,-0.5 h -0.3 v -0.5 a 0.5,0.5 0 0 0 -0.5,-0.5 h -13 a 0.5,0.5 0 0 0 -0.5,0.5 v 0.5 h -0.3 a 0.5,0.5 0 0 0 -0.5,0.5 v 2.1 a 0.5,0.5 0 0 0 0.5,0.5 h 0.3 v 5.8 h -0.3 a 0.5,0.5 0 0 0 -0.5,0.5 v 2.1 a 0.5,0.5 0 0 0 0.5,0.5 h 0.3 z"
     id="path994" />
  <path
     style="font-size:12px;fill:none;fill-rule:evenodd;stroke:#000000;stroke-width:0.25;stroke-linecap:round;stroke-opacity:1;stroke-miterlimit:4;stroke-dasharray:none"
     d="m 135.86323,23.618846 a 0.5,0.5 0 0 0 0.5,0.5 h 13 a 0.5,0.5 0 0 0 0.5,-0.5 v -0.5 h 0.3 a 0.5,0.5 0 0 0 0.5,-0.5 v -2.1 a 0.5,0.5 0 0 0 -0.5,-0.5 h -0.3 v -5.8 h 0.3 a 0.5,0.5 0 0 0 0.5,-0.5 v -2.1 a 0.5,0.5 0 0 0 -0.5,-0.5 h -0.3 v -0.5 a 0.5,0.5 0 0 0 -0.5,-0.5 h -13 a 0.5,0.5 0 0 0 -0.5,0.5 v 0.5 h -0.3 a 0.5,0.5 0 0 0 -0.5,0.5 v 2.1 a 0.5,0.5 0 0 0 0.5,0.5 h 0.3 v 5.8 h -0.3 a 0.5,0.5 0 0 0 -0.5,0.5 v 2.1 a 0.5,0.5 0 0 0 0.5,0.5 h 0.3 z"
     id="path992" />
  <path
     style="font-size:12px;fill:none;fill-rule:evenodd;stroke:#000000;stroke-width:0.25;stroke-linecap:round;stroke-opacity:1;stroke-miterlimit:4;stroke-dasharray:none"
     d="m 116.81323,23.618846 a 0.5,0.5 0 0 0 0.5,0.5 h 13 a 0.5,0.5 0 0 0 0.5,-0.5 v -0.5 h 0.3 a 0.5,0.5 0 0 0 0.5,-0.5 v -2.1 a 0.5,0.5 0 0 0 -0.5,-0.5 h -0.3 v -5.8 h 0.3 a 0.5,0.5 0 0 0 0.5,-0.5 v -2.1 a 0.5,0.5 0 0 0 -0.5,-0.5 h -0.3 v -0.5 a 0.5,0.5 0 0 0 -0.5,-0.5 h -13 a 0.5,0.5 0 0 0 -0.5,0.5 v 0.5 h -0.3 a 0.5,0.5 0 0 0 -0.5,0.5 v 2.1 a 0.5,0.5 0 0 0 0.5,0.5 h 0.3 v 5.8 h -0.3 a 0.5,0.5 0 0 0 -0.5,0.5 v 2.1 a 0.5,0.5 0 0 0 0.5,0.5 h 0.3 z"
     id="path990" />
  <path
     style="font-size:12px;fill:none;fill-rule:evenodd;stroke:#000000;stroke-width:0.25;stroke-linecap:round;stroke-opacity:1;stroke-miterlimit:4;stroke-dasharray:none"
     d="m 97.763226,23.618846 a 0.5,0.5 0 0 0 0.5,0.5 h 13.000004 a 0.5,0.5 0 0 0 0.5,-0.5 v -0.5 h 0.3 a 0.5,0.5 0 0 0 0.5,-0.5 v -2.1 a 0.5,0.5 0 0 0 -0.5,-0.5 h -0.3 v -5.8 h 0.3 a 0.5,0.5 0 0 0 0.5,-0.5 v -2.1 a 0.5,0.5 0 0 0 -0.5,-0.5 h -0.3 v -0.5 a 0.5,0.5 0 0 0 -0.5,-0.5 H 98.263226 a 0.5,0.5 0 0 0 -0.5,0.5 v 0.5 h -0.3 a 0.5,0.5 0 0 0 -0.5,0.5 v 2.1 a 0.5,0.5 0 0 0 0.5,0.5 h 0.3 v 5.8 h -0.3 a 0.5,0.5 0 0 0 -0.5,0.5 v 2.1 a 0.5,0.5 0 0 0 0.5,0.5 h 0.3 z"
     id="path988" />
  <path
     style="font-size:12px;fill:none;fill-rule:evenodd;stroke:#000000;stroke-width:0.25;stroke-linecap:round;stroke-opacity:1;stroke-miterlimit:4;stroke-dasharray:none"
     d="m 78.713226,23.618846 a 0.5,0.5 0 0 0 0.5,0.5 h 13 a 0.5,0.5 0 0 0 0.5,-0.5 v -0.5 h 0.3 a 0.5,0.5 0 0 0 0.5,-0.5 v -2.1 a 0.5,0.5 0 0 0 -0.5,-0.5 h -0.3 v -5.8 h 0.3 a 0.5,0.5 0 0 0 0.5,-0.5 v -2.1 a 0.5,0.5 0 0 0 -0.5,-0.5 h -0.3 v -0.5 a 0.5,0.5 0 0 0 -0.5,-0.5 h -13 a 0.5,0.5 0 0 0 -0.5,0.5 v 0.5 h -0.3 a 0.5,0.5 0 0 0 -0.5,0.5 v 2.1 a 0.5,0.5 0 0 0 0.5,0.5 h 0.3 v 5.8 h -0.3 a 0.5,0.5 0 0 0 -0.5,0.5 v 2.1 a 0.5,0.5 0 0 0 0.5,0.5 h 0.3 z"
     id="path986" />
  <path
     style="font-size:12px;fill:none;fill-rule:evenodd;stroke:#000000;stroke-width:0.25;stroke-linecap:round;stroke-opacity:1;stroke-miterlimit:4;stroke-dasharray:none"
     d="m 59.663226,23.618846 a 0.5,0.5 0 0 0 0.5,0.5 h 13 a 0.5,0.5 0 0 0 0.5,-0.5 v -0.5 h 0.3 a 0.5,0.5 0 0 0 0.5,-0.5 v -2.1 a 0.5,0.5 0 0 0 -0.5,-0.5 h -0.3 v -5.8 h 0.3 a 0.5,0.5 0 0 0 0.5,-0.5 v -2.1 a 0.5,0.5 0 0 0 -0.5,-0.5 h -0.3 v -0.5 a 0.5,0.5 0 0 0 -0.5,-0.5 h -13 a 0.5,0.5 0 0 0 -0.5,0.5 v 0.5 h -0.3 a 0.5,0.5 0 0 0 -0.5,0.5 v 2.1 a 0.5,0.5 0 0 0 0.5,0.5 h 0.3 v 5.8 h -0.3 a 0.5,0.5 0 0 0 -0.5,0.5 v 2.1 a 0.5,0.5 0 0 0 0.5,0.5 h 0.3 z"
     id="path984" />
  <path
     style="font-size:12px;fill:none;fill-rule:evenodd;stroke:#000000;stroke-width:0.25;stroke-linecap:round;stroke-opacity:1;stroke-miterlimit:4;stroke-dasharray:none"
     d="m 40.613226,23.618846 a 0.5,0.5 0 0 0 0.5,0.5 h 13 a 0.5,0.5 0 0 0 0.5,-0.5 v -0.5 h 0.3 a 0.5,0.5 0 0 0 0.5,-0.5 v -2.1 a 0.5,0.5 0 0 0 -0.5,-0.5 h -0.3 v -5.8 h 0.3 a 0.5,0.5 0 0 0 0.5,-0.5 v -2.1 a 0.5,0.5 0 0 0 -0.5,-0.5 h -0.3 v -0.5 a 0.5,0.5 0 0 0 -0.5,-0.5 h -13 a 0.5,0.5 0 0 0 -0.5,0.5 v 0.5 h -0.3 a 0.5,0.5 0 0 0 -0.5,0.5 v 2.1 a 0.5,0.5 0 0 0 0.5,0.5 h 0.3 v 5.8 h -0.3 a 0.5,0.5 0 0 0 -0.5,0.5 v 2.1 a 0.5,0.5 0 0 0 0.5,0.5 h 0.3 z"
     id="path982" />
  <path
     style="font-size:12px;fill:none;fill-rule:evenodd;stroke:#000000;stroke-width:0.25;stroke-linecap:round;stroke-opacity:1;stroke-miterlimit:4;stroke-dasharray:none"
     d="m 21.563226,23.618846 a 0.5,0.5 0 0 0 0.5,0.5 h 13 a 0.5,0.5 0 0 0 0.5,-0.5 v -0.5 h 0.3 a 0.5,0.5 0 0 0 0.5,-0.5 v -2.1 a 0.5,0.5 0 0 0 -0.5,-0.5 h -0.3 v -5.8 h 0.3 a 0.5,0.5 0 0 0 0.5,-0.5 v -2.1 a 0.5,0.5 0 0 0 -0.5,-0.5 h -0.3 v -0.5 a 0.5,0.5 0 0 0 -0.5,-0.5 h -13 a 0.5,0.5 0 0 0 -0.5,0.5 v 0.5 h -0.3 a 0.5,0.5 0 0 0 -0.5,0.5 v 2.1 a 0.5,0.5 0 0 0 0.5,0.5 h 0.3 v 5.8 h -0.3 a 0.5,0.5 0 0 0 -0.5,0.5 v 2.1 a 0.5,0.5 0 0 0 0.5,0.5 h 0.3 z"
     id="path980" />
  <path
     style="font-size:12px;fill:none;fill-rule:evenodd;stroke:#000000;stroke-width:0.25;stroke-linecap:round;stroke-opacity:1;stroke-miterlimit:4;stroke-dasharray:none"
     d="m 2.5132257,23.618846 a 0.5,0.5 0 0 0 0.5,0.5 H 16.013226 a 0.5,0.5 0 0 0 0.5,-0.5 v -0.5 h 0.3 a 0.5,0.5 0 0 0 0.5,-0.5 v -2.1 a 0.5,0.5 0 0 0 -0.5,-0.5 h -0.3 v -5.8 h 0.3 a 0.5,0.5 0 0 0 0.5,-0.5 v -2.1 a 0.5,0.5 0 0 0 -0.5,-0.5 h -0.3 v -0.5 a 0.5,0.5 0 0 0 -0.5,-0.5 H 3.0132257 a 0.5,0.5 0 0 0 -0.5,0.5 v 0.5 h -0.3 a 0.5,0.5 0 0 0 -0.5,0.5 v 2.1 a 0.5,0.5 0 0 0 0.5,0.5 h 0.3 v 5.8 h -0.3 a 0.5,0.5 0 0 0 -0.5,0.5 v 2.1 a 0.5,0.5 0 0 0 0.5,0.5 h 0.3 z"
     id="path2" />
  <g
     transform="matrix(5.3815865e-4,0,0,-5.3815865e-4,139.97968,58.654736)"
     fill="#000000"
     stroke="none"
     id="g6"
     inkscape:transform-center-x="140.51736"
     inkscape:transform-center-y="-102.77184"
     style="stroke-width:464.54702542;stroke-miterlimit:4;stroke-dasharray:none;stroke:#000000;stroke-opacity:1;fill:none">
    <path
       d="m 1588,12770 c -21,-5 -65,-21 -98,-35 -32,-14 -66,-25 -74,-25 -9,0 -55,-13 -103,-29 -49,-16 -104,-32 -123,-35 -20,-3 -78,-34 -130,-67 -52,-34 -115,-72 -139,-84 -32,-17 -50,-35 -65,-66 -12,-24 -35,-53 -53,-64 -18,-11 -47,-29 -65,-40 -42,-26 -110,-129 -150,-226 -30,-74 -33,-77 -83,-98 -61,-25 -108,-72 -124,-123 -7,-21 -11,-87 -10,-155 l 2,-118 -70,-40 c -199,-115 -271,-202 -281,-337 -3,-39 -1,-68 5,-68 5,0 51,9 103,21 148,32 267,49 361,49 h 86 l 5,-93 c 6,-116 37,-193 92,-229 33,-21 36,-27 36,-70 0,-137 90,-198 271,-185 57,4 94,0 145,-14 81,-22 134,-23 189,-4 21,8 40,13 41,12 1,-1 -15,-70 -37,-152 C 1002,9286 912,8873 851,8340 c -36,-312 -43,-449 -40,-715 8,-566 3,-874 -20,-1179 -19,-253 -20,-316 -11,-410 30,-304 130,-513 382,-799 388,-440 513,-564 737,-732 249,-188 474,-303 675,-345 227,-47 399,-138 941,-500 361,-242 390,-271 476,-487 104,-262 178,-343 554,-598 87,-60 189,-134 225,-164 36,-30 67,-56 68,-57 7,-5 -50,-218 -95,-359 -87,-271 -264,-718 -358,-905 -27,-54 -43,-73 -68,-83 -54,-23 -145,-37 -302,-46 -168,-10 -202,-20 -316,-86 -41,-25 -81,-45 -87,-45 -28,0 -96,-92 -116,-158 -7,-21 -6,-22 34,-16 23,4 80,1 128,-5 48,-7 156,-16 241,-19 l 154,-7 -154,-102 c -85,-56 -163,-111 -173,-122 -26,-29 -30,-95 -12,-174 9,-38 16,-95 16,-128 V 39 l 45,31 c 24,17 66,41 92,55 26,13 99,67 162,120 63,52 139,107 168,121 49,24 61,26 146,21 70,-3 107,-11 156,-31 73,-31 106,-28 123,10 9,20 8,34 -5,72 -37,103 -15,192 78,319 123,168 272,534 540,1331 l 122,363 129,87 c 159,108 187,135 298,295 115,166 130,177 249,189 91,8 541,75 564,83 8,2 13,-29 17,-103 16,-270 28,-432 37,-488 5,-34 39,-165 75,-290 42,-150 67,-255 71,-305 5,-72 4,-80 -27,-137 -17,-33 -71,-105 -120,-159 l -87,-99 -104,-38 c -215,-79 -328,-177 -367,-320 l -11,-38 32,5 c 18,3 102,22 187,41 183,41 451,91 568,105 81,10 241,67 425,150 81,37 109,38 202,10 61,-18 85,-33 170,-105 171,-145 165,-159 59,134 -109,299 -109,299 -284,392 -144,77 -221,130 -247,168 -26,40 -78,250 -132,542 -40,211 -111,624 -108,626 1,1 74,45 162,99 310,189 494,319 670,471 266,230 380,321 515,409 69,45 143,102 166,126 94,102 184,268 223,406 31,114 66,169 177,279 56,56 107,111 113,123 24,45 33,126 40,391 6,214 11,283 23,310 31,71 119,172 398,455 157,160 302,315 321,345 104,158 142,286 159,529 20,289 46,345 237,512 28,26 51,93 68,208 12,79 20,100 48,137 45,57 130,128 203,168 46,25 67,45 92,87 29,46 33,61 29,104 -2,28 -16,79 -31,115 -44,104 -46,97 24,105 58,7 62,9 87,49 14,22 39,56 56,74 27,27 32,41 35,95 3,54 1,66 -22,97 -40,54 -53,89 -70,181 -31,178 -32,171 24,236 28,32 53,69 57,82 5,22 -6,92 -23,135 -7,18 -2,18 102,11 122,-8 161,-25 238,-104 31,-32 43,-38 57,-30 38,20 52,149 24,217 -10,24 -92,113 -230,252 l -214,215 -16,65 c -8,36 -15,93 -15,128 0,62 -1,64 -51,118 -29,30 -72,68 -97,84 -40,26 -54,30 -116,30 -50,0 -92,-8 -141,-25 -38,-14 -71,-25 -73,-25 -2,0 -3,28 -2,63 1,34 1,70 1,80 -1,9 -34,52 -75,95 -96,101 -101,111 -79,157 32,67 -20,100 -196,125 l -115,16 -37,60 -36,59 -55,-1 -54,-1 -32,58 c -37,67 -69,88 -146,96 -49,5 -60,1 -206,-72 -200,-100 -309,-166 -362,-219 -75,-75 -329,-518 -563,-981 -118,-233 -143,-275 -244,-408 -120,-157 -162,-196 -294,-275 -189,-113 -251,-141 -378,-172 -515,-124 -2324,-370 -2724,-370 -90,0 -185,32 -344,115 -303,160 -588,398 -673,561 -59,112 -125,353 -238,859 -28,127 -76,330 -105,453 -125,513 -193,630 -575,987 -100,94 -203,185 -229,204 -80,58 -178,98 -282,114 -57,9 -117,26 -145,40 -53,27 -194,124 -194,133 0,3 20,28 44,56 59,64 90,145 83,215 -10,100 -77,202 -161,245 -46,23 -142,32 -198,18 z"
       id="path4"
       style="stroke-width:464.54702542;stroke-miterlimit:4;stroke-dasharray:none;stroke:#000000;stroke-opacity:1;fill:none" />
  </g>
  <path
     style="font-size:12px;fill:none;fill-rule:evenodd;stroke:#000000;stroke-width:0.25;stroke-linecap:round;stroke-opacity:1;stroke-miterlimit:4;stroke-dasharray:none"
     d="m 116.81323,80.768846 a 0.5,0.5 0 0 0 0.5,0.5 h 13 a 0.5,0.5 0 0 0 0.5,-0.5 v -0.5 h 0.3 a 0.5,0.5 0 0 0 0.5,-0.5 v -2.1 a 0.5,0.5 0 0 0 -0.5,-0.5 h -0.3 v -5.8 h 0.3 a 0.5,0.5 0 0 0 0.5,-0.5 v -2.1 a 0.5,0.5 0 0 0 -0.5,-0.5 h -0.3 v -0.5 a 0.5,0.5 0 0 0 -0.5,-0.5 h -13 a 0.5,0.5 0 0 0 -0.5,0.5 v 0.5 h -0.3 a 0.5,0.5 0 0 0 -0.5,0.5 v 2.1 a 0.5,0.5 0 0 0 0.5,0.5 h 0.3 v 5.8 h -0.3 a 0.5,0.5 0 0 0 -0.5,0.5 v 2.1 a 0.5,0.5 0 0 0 0.5,0.5 h 0.3 z"
     id="path2201" />
</svg>
